<svg width="219" height="125" viewBox="0 0 219 125" fill="none" xmlns="http://www.w3.org/2000/svg">
<path d="M96.312 36.744L94.7241 33.1566C82.0208 38.8965 62.7013 50.1637 54.6294 55.0798C54.894 55.3455 55.6615 56.1959 56.6143 57.4714C68.0472 49.1805 87.8431 40.1986 96.312 36.744Z" fill="white"/>
<path d="M119.131 35.0512L117.153 37.4355C127.174 46.1779 148.718 65.0139 154.731 70.4183C147.769 60.8811 128.097 42.8664 119.131 35.0512Z" fill="white"/>
<path fill-rule="evenodd" clip-rule="evenodd" d="M19.7689 85.1667V109.704H28.2095H36.6493L36.4374 85.3958L36.2246 61.0872L27.9968 60.8582L19.7689 60.6292V85.1667ZM105.393 61.2214C105.098 61.5156 104.857 72.5448 104.857 85.7309V109.704H113.258H121.66L121.888 101.298L122.116 92.8908L127.317 101.298L132.52 109.704H142.817C148.481 109.704 152.926 109.399 152.697 109.026C152.466 108.653 154.149 108.834 156.436 109.428C169.982 112.945 180.641 108.604 181.676 99.1484C182.193 94.4201 179.765 90.9638 173.49 87.498C170.406 85.7943 168.673 84.3238 168.673 83.4093C168.673 81.2468 173.329 81.0877 176.789 83.1321C178.336 84.0457 179.778 84.7931 179.994 84.7931C180.21 84.7931 180.279 82.3622 180.149 79.3914L179.911 73.9888L175.898 72.462C170.254 70.3156 161.474 70.2642 157.902 72.3576C154.229 74.5104 152.186 77.4603 151.663 81.3642C151.029 86.0949 153.115 89.11 159.69 92.9648C164.098 95.5499 165.108 96.5078 164.908 97.9149C164.539 100.507 160.93 100.588 156.196 98.1101C154.024 96.9739 152.06 96.0433 151.831 96.0433C151.602 96.0433 151.415 98.6188 151.415 101.767V107.49L144.358 98.352C140.477 93.3256 137.017 88.7499 136.67 88.185C136.098 87.2529 137.859 84.9466 147.698 73.7437L149.287 71.9357H139.52H129.754L125.935 77.6886L122.116 83.4414L121.893 72.0634L121.67 60.6854H113.799C109.469 60.6854 105.686 60.9265 105.393 61.2214ZM87.5986 70.715C87.1571 70.8669 85.8302 71.2036 84.6502 71.4632C83.4703 71.7227 81.3928 72.8719 80.0346 74.0162L77.5646 76.0967V74.0162V71.9357H69.1361H60.7076V90.82V109.704H69.1361H77.5646V98.1817C77.5646 86.8197 77.5911 86.6462 79.4783 85.7855C80.9585 85.1105 81.7765 85.182 83.0906 86.1037C84.6824 87.2199 84.7891 88.001 84.7891 98.4999V109.704H92.8163H100.843V94.6242C100.843 77.9023 100.215 75.2971 95.5351 72.6179C93.1149 71.2325 88.9761 70.2401 87.5986 70.715ZM40.6396 90.7661V109.704H48.6668H56.694V90.7661V71.8272L54.8879 72.4845C53.8949 72.8453 51.095 73.1411 48.6668 73.1411C46.2386 73.1411 43.4387 72.8453 42.4457 72.4845L40.6396 71.8272V90.7661Z" fill="white"/>
<path d="M133.261 16.0328C69.296 -5.30884 17.7682 35.012 0 57.8402C26.2545 19.2181 77.5701 -19.0057 149.969 10.4585C207.888 34.0299 218.39 96.4622 216.401 124.732C215.34 97.3912 197.227 37.3745 133.261 16.0328Z" fill="#B5B5B5"/>
<path d="M207.658 62.5825C195.892 52.4339 169.365 63.904 157.573 70.9076C177.846 52.6718 207.658 46.735 216.006 60.9968C222.32 71.7845 215.942 80.681 211.886 83.523C211.697 82.812 211.413 81.9441 211.255 81.1547C212.622 76.0839 215.018 68.9304 207.658 62.5825Z" fill="white"/>
<path d="M119.694 26.6874C119.694 25.0967 118.632 23.3735 118.101 22.7107C137.221 12.9016 180.243 -0.751612 198.965 18.734C215.953 36.4152 205.719 50.6038 196.535 56.5463C195.694 57.1988 194.772 57.7244 193.786 58.103C194.672 57.6733 195.598 57.1527 196.535 56.5463C203.057 51.487 204.724 38.7997 193.786 27.8804C170.515 4.64835 122.482 25.4944 119.694 26.6874Z" fill="white"/>
<path d="M39.2741 8.40284C16.014 9.3598 17.8992 27.4092 21.7493 36.3144C13.7836 30.7321 8.60582 4.41547 33.2997 0.428115C53.0549 -2.76177 83.7497 12.656 96.6277 20.7636L95.0345 23.5548C86.1394 18.1054 62.5341 7.44587 39.2741 8.40284Z" fill="white"/>
<circle cx="48.9454" cy="60.6292" r="8.84176" fill="white"/>
<circle cx="105.785" cy="28.7357" r="8.84176" fill="#B5B5B5"/>
</svg>
