<svg width="418" height="159" viewBox="0 0 418 159" fill="none" xmlns="http://www.w3.org/2000/svg">
<g clip-path="url(#clip0_246_458)">
<path d="M0 12C0 5.37258 5.37258 0 12 0H406C412.627 0 418 5.37258 418 12V159H0V12Z" fill="#0D0D0D"/>
<circle cx="211.5" cy="148.5" r="166.5" fill="#0F75BC" fill-opacity="0.1"/>
<circle cx="211.5" cy="148.5" r="127.5" fill="#0F75BC" fill-opacity="0.2"/>
<circle cx="211.5" cy="148.5" r="96.5" fill="#0F75BC" fill-opacity="0.6"/>
<circle cx="211.5" cy="148.5" r="61.5" fill="#0F75BC"/>
<path d="M206.658 130.078L206.136 128.899C201.961 130.785 195.61 134.489 192.957 136.105C193.044 136.192 193.296 136.472 193.609 136.891C197.368 134.166 203.875 131.213 206.658 130.078Z" fill="white"/>
<path d="M214.159 129.522L213.509 130.305C216.803 133.179 223.885 139.37 225.861 141.147C223.572 138.012 217.106 132.09 214.159 129.522Z" fill="white"/>
<path fill-rule="evenodd" clip-rule="evenodd" d="M181.498 145.995V154.06H184.273H187.047L186.977 146.07L186.907 138.08L184.203 138.004L181.498 137.929V145.995ZM209.643 138.124C209.546 138.22 209.467 141.846 209.467 146.18V154.06H212.229H214.99L215.065 151.297L215.14 148.534L216.85 151.297L218.56 154.06H221.945C223.806 154.06 225.268 153.96 225.192 153.837C225.116 153.715 225.669 153.774 226.421 153.969C230.874 155.126 234.378 153.699 234.718 150.591C234.888 149.036 234.09 147.9 232.027 146.761C231.013 146.201 230.444 145.718 230.444 145.417C230.444 144.706 231.974 144.654 233.111 145.326C233.62 145.626 234.094 145.872 234.165 145.872C234.236 145.872 234.259 145.073 234.216 144.096L234.138 142.32L232.818 141.819C230.963 141.113 228.077 141.096 226.903 141.784C225.696 142.492 225.024 143.462 224.852 144.745C224.644 146.3 225.33 147.291 227.491 148.558C228.94 149.408 229.272 149.723 229.206 150.185C229.085 151.037 227.899 151.064 226.342 150.249C225.629 149.876 224.983 149.57 224.907 149.57C224.832 149.57 224.771 150.416 224.771 151.451V153.333L222.451 150.329C221.175 148.677 220.038 147.173 219.924 146.987C219.736 146.68 220.315 145.922 223.549 142.24L224.071 141.646H220.861H217.651L216.395 143.537L215.14 145.428L215.067 141.688L214.994 137.948H212.406C210.983 137.948 209.74 138.027 209.643 138.124ZM203.794 141.244C203.649 141.294 203.213 141.405 202.825 141.49C202.437 141.576 201.754 141.953 201.308 142.329L200.496 143.013V142.329V141.646H197.725H194.955V147.853V154.06H197.725H200.496V150.273C200.496 146.538 200.505 146.481 201.125 146.198C201.612 145.976 201.88 146 202.312 146.303C202.836 146.67 202.871 146.926 202.871 150.377V154.06H205.509H208.148V149.103C208.148 143.607 207.941 142.75 206.403 141.87C205.607 141.414 204.247 141.088 203.794 141.244ZM188.358 147.835V154.06H190.997H193.636V147.835V141.61L193.042 141.826C192.716 141.945 191.795 142.042 190.997 142.042C190.199 142.042 189.279 141.945 188.952 141.826L188.358 141.61V147.835Z" fill="white"/>
<path d="M218.804 123.27C197.778 116.255 180.84 129.509 175 137.012C183.63 124.317 200.498 111.753 224.296 121.438C243.334 129.186 246.786 149.708 246.132 159C245.783 150.013 239.829 130.285 218.804 123.27Z" fill="#D7D7D7"/>
<path d="M243.258 138.571C239.391 135.235 230.671 139.006 226.795 141.308C233.459 135.313 243.258 133.362 246.002 138.05C248.078 141.596 245.981 144.52 244.648 145.454C244.648 145.454 244.648 145.454 244.648 145.454C244.586 145.221 244.492 144.935 244.44 144.676C244.89 143.009 245.677 140.658 243.258 138.571Z" fill="white"/>
<path d="M214.344 126.772C214.344 126.249 213.995 125.683 213.82 125.465C220.105 122.241 234.247 117.753 240.401 124.158C245.985 129.97 242.621 134.634 239.602 136.587C239.326 136.802 239.023 136.974 238.699 137.099C238.99 136.958 239.294 136.786 239.602 136.587C241.746 134.924 242.294 130.754 238.699 127.164C231.049 119.528 215.261 126.38 214.344 126.772Z" fill="white"/>
<path d="M187.91 120.762C180.264 121.077 180.884 127.01 182.149 129.937C179.531 128.102 177.829 119.451 185.946 118.141C192.439 117.092 202.529 122.16 206.762 124.825L206.238 125.743C203.314 123.951 195.555 120.447 187.91 120.762Z" fill="white"/>
<circle cx="191.089" cy="137.929" r="2.90633" fill="white"/>
<circle cx="209.772" cy="127.446" r="2.90633" fill="#D7D7D7"/>
<g filter="url(#filter0_b_246_458)">
<circle cx="161.5" cy="67.5" r="19.5" fill="url(#paint0_linear_246_458)"/>
<circle cx="161.5" cy="67.5" r="19.2132" stroke="#0F75BC" stroke-width="0.573529"/>
</g>
<g filter="url(#filter1_b_246_458)">
<circle cx="226" cy="24" r="19" fill="url(#paint1_linear_246_458)"/>
<circle cx="226" cy="24" r="18.7206" stroke="#0F75BC" stroke-width="0.558824"/>
</g>
<g filter="url(#filter2_b_246_458)">
<circle cx="248" cy="99" r="19" fill="url(#paint2_linear_246_458)"/>
<circle cx="248" cy="99" r="18.7206" stroke="#59A7DE" stroke-width="0.558824"/>
</g>
<g clip-path="url(#clip1_246_458)">
<path d="M167.952 64.2739H155.048C154.691 64.2739 154.403 64.5628 154.403 64.9191V73.9522C154.403 74.3085 154.691 74.5974 155.048 74.5974H167.952C168.309 74.5974 168.597 74.3085 168.597 73.9522V64.9191C168.597 64.5628 168.309 64.2739 167.952 64.2739Z" stroke="white" stroke-width="1.72059" stroke-linecap="round" stroke-linejoin="round"/>
<path d="M161.5 70.7261C162.213 70.7261 162.79 70.1484 162.79 69.4357C162.79 68.723 162.213 68.1452 161.5 68.1452C160.787 68.1452 160.21 68.723 160.21 69.4357C160.21 70.1484 160.787 70.7261 161.5 70.7261Z" fill="white"/>
<path d="M158.274 64.2739V61.693C158.274 60.8374 158.614 60.0168 159.219 59.4118C159.824 58.8068 160.644 58.4669 161.5 58.4669C162.356 58.4669 163.176 58.8068 163.781 59.4118C164.386 60.0168 164.726 60.8374 164.726 61.693V64.2739" stroke="white" stroke-width="1.72059" stroke-linecap="round" stroke-linejoin="round"/>
</g>
<g clip-path="url(#clip2_246_458)">
<path d="M226 31.5441C230.167 31.5441 233.544 28.1665 233.544 24C233.544 19.8335 230.167 16.4559 226 16.4559C221.834 16.4559 218.456 19.8335 218.456 24C218.456 28.1665 221.834 31.5441 226 31.5441Z" stroke="white" stroke-width="1.67647" stroke-linecap="round" stroke-linejoin="round"/>
<path d="M229.143 24C229.143 29.0294 226 31.5441 226 31.5441C226 31.5441 222.857 29.0294 222.857 24C222.857 18.9706 226 16.4559 226 16.4559C226 16.4559 229.143 18.9706 229.143 24Z" stroke="white" stroke-width="1.67647" stroke-linecap="round" stroke-linejoin="round"/>
<path d="M218.885 21.4853H233.115" stroke="white" stroke-width="1.67647" stroke-linecap="round" stroke-linejoin="round"/>
<path d="M218.885 26.5147H233.115" stroke="white" stroke-width="1.67647" stroke-linecap="round" stroke-linejoin="round"/>
</g>
<g clip-path="url(#clip3_246_458)">
<path d="M256.801 103.62C249.6 107.138 246.4 100.292 239.198 103.81V94.38C246.4 90.8618 249.6 97.7081 256.801 94.1898V103.62Z" stroke="white" stroke-width="1.67647" stroke-linecap="round" stroke-linejoin="round"/>
<path d="M248 100.572C248.868 100.572 249.572 99.868 249.572 99C249.572 98.132 248.868 97.4283 248 97.4283C247.132 97.4283 246.428 98.132 246.428 99C246.428 99.868 247.132 100.572 248 100.572Z" stroke="white" stroke-width="1.67647" stroke-linecap="round" stroke-linejoin="round"/>
<path d="M242.028 96.7996V99.943" stroke="white" stroke-width="1.67647" stroke-linecap="round" stroke-linejoin="round"/>
<path d="M253.972 98.057V101.2" stroke="white" stroke-width="1.67647" stroke-linecap="round" stroke-linejoin="round"/>
</g>
</g>
<defs>
<filter id="filter0_b_246_458" x="137.412" y="43.4118" width="48.1765" height="48.1765" filterUnits="userSpaceOnUse" color-interpolation-filters="sRGB">
<feFlood flood-opacity="0" result="BackgroundImageFix"/>
<feGaussianBlur in="BackgroundImageFix" stdDeviation="2.29412"/>
<feComposite in2="SourceAlpha" operator="in" result="effect1_backgroundBlur_246_458"/>
<feBlend mode="normal" in="SourceGraphic" in2="effect1_backgroundBlur_246_458" result="shape"/>
</filter>
<filter id="filter1_b_246_458" x="202.529" y="0.529412" width="46.9412" height="46.9412" filterUnits="userSpaceOnUse" color-interpolation-filters="sRGB">
<feFlood flood-opacity="0" result="BackgroundImageFix"/>
<feGaussianBlur in="BackgroundImageFix" stdDeviation="2.23529"/>
<feComposite in2="SourceAlpha" operator="in" result="effect1_backgroundBlur_246_458"/>
<feBlend mode="normal" in="SourceGraphic" in2="effect1_backgroundBlur_246_458" result="shape"/>
</filter>
<filter id="filter2_b_246_458" x="224.529" y="75.5294" width="46.9412" height="46.9412" filterUnits="userSpaceOnUse" color-interpolation-filters="sRGB">
<feFlood flood-opacity="0" result="BackgroundImageFix"/>
<feGaussianBlur in="BackgroundImageFix" stdDeviation="2.23529"/>
<feComposite in2="SourceAlpha" operator="in" result="effect1_backgroundBlur_246_458"/>
<feBlend mode="normal" in="SourceGraphic" in2="effect1_backgroundBlur_246_458" result="shape"/>
</filter>
<linearGradient id="paint0_linear_246_458" x1="161.5" y1="48" x2="161.5" y2="87" gradientUnits="userSpaceOnUse">
<stop stop-color="#0F75BC"/>
<stop offset="1" stop-color="#0F75BC" stop-opacity="0"/>
</linearGradient>
<linearGradient id="paint1_linear_246_458" x1="226" y1="5" x2="226" y2="43" gradientUnits="userSpaceOnUse">
<stop stop-color="#0F75BC"/>
<stop offset="1" stop-color="#0F75BC" stop-opacity="0"/>
</linearGradient>
<linearGradient id="paint2_linear_246_458" x1="248" y1="80" x2="248" y2="118" gradientUnits="userSpaceOnUse">
<stop stop-color="#0F75BC"/>
<stop offset="1" stop-color="#0F75BC" stop-opacity="0"/>
</linearGradient>
<clipPath id="clip0_246_458">
<path d="M0 12C0 5.37258 5.37258 0 12 0H406C412.627 0 418 5.37258 418 12V159H0V12Z" fill="white"/>
</clipPath>
<clipPath id="clip1_246_458">
<rect width="20.6471" height="20.6471" fill="white" transform="translate(151.177 57.1765)"/>
</clipPath>
<clipPath id="clip2_246_458">
<rect width="20.1176" height="20.1176" fill="white" transform="translate(215.941 13.9412)"/>
</clipPath>
<clipPath id="clip3_246_458">
<rect width="20.1176" height="20.1176" fill="white" transform="translate(237.941 88.9412)"/>
</clipPath>
</defs>
</svg>
