<svg width="418" height="159" viewBox="0 0 418 159" fill="none" xmlns="http://www.w3.org/2000/svg">
<g clip-path="url(#clip0_246_498)">
<path d="M0 12C0 5.37258 5.37258 0 12 0H406C412.627 0 418 5.37258 418 12V159H0V12Z" fill="#0D0D0D"/>
<rect x="78" y="19" width="261" height="214" rx="15" fill="#0D2A3E"/>
<rect x="41" y="45" width="336" height="88" rx="13" fill="#0F75BC"/>
<path d="M64.708 64.512C64.9187 64.512 65.1147 64.4773 65.296 64.408C65.48 64.3387 65.6493 64.2507 65.804 64.144L66.132 64.584C65.948 64.7413 65.7267 64.8653 65.468 64.956C65.2093 65.0467 64.956 65.092 64.708 65.092C64.2893 65.092 63.932 65.0027 63.636 64.824C63.3427 64.6427 63.1187 64.3893 62.964 64.064C62.8093 63.736 62.732 63.352 62.732 62.912C62.732 62.4907 62.8093 62.1133 62.964 61.78C63.1213 61.444 63.3467 61.18 63.64 60.988C63.936 60.796 64.2947 60.7 64.716 60.7C64.9853 60.7 65.2373 60.7413 65.472 60.824C65.7093 60.904 65.9267 61.0253 66.124 61.188L65.796 61.636C65.6173 61.5107 65.4373 61.4173 65.256 61.356C65.0773 61.292 64.8947 61.26 64.708 61.26C64.3453 61.26 64.0467 61.396 63.812 61.668C63.5773 61.94 63.46 62.3547 63.46 62.912C63.46 63.2853 63.5133 63.5907 63.62 63.828C63.7293 64.0627 63.8773 64.236 64.064 64.348C64.2533 64.4573 64.468 64.512 64.708 64.512ZM68.2729 60.788V63.772C68.2729 64.0493 68.3302 64.2493 68.4449 64.372C68.5595 64.4947 68.7382 64.556 68.9809 64.556C69.2129 64.556 69.4315 64.4907 69.6369 64.36C69.8449 64.2267 70.0062 64.0693 70.1209 63.888V60.788H70.7929V65H70.2209L70.1649 64.432C69.9995 64.6453 69.7955 64.8093 69.5529 64.924C69.3102 65.036 69.0649 65.092 68.8169 65.092C68.4089 65.092 68.1035 64.984 67.9009 64.768C67.7009 64.5493 67.6009 64.244 67.6009 63.852V60.788H68.2729ZM72.4378 65V64.484H73.0938V61.304H72.4378V60.788H73.6058L73.7298 61.784C73.8924 61.4373 74.0898 61.1693 74.3218 60.98C74.5538 60.7907 74.8604 60.696 75.2418 60.696C75.3591 60.696 75.4631 60.7053 75.5538 60.724C75.6471 60.74 75.7418 60.7613 75.8378 60.788L75.6418 61.388C75.5538 61.364 75.4738 61.3467 75.4018 61.336C75.3298 61.3227 75.2471 61.316 75.1538 61.316C74.8311 61.316 74.5538 61.4307 74.3218 61.66C74.0898 61.8893 73.9044 62.236 73.7658 62.7V64.484H74.6218V65H72.4378ZM75.1898 62.212V61.296L75.2578 60.788H75.8378L75.7418 62.212H75.1898ZM78.8346 59.092V63.96C78.8346 64.168 78.8986 64.316 79.0266 64.404C79.1573 64.4893 79.3253 64.532 79.5306 64.532C79.6586 64.532 79.78 64.5187 79.8946 64.492C80.0093 64.4653 80.124 64.4293 80.2386 64.384L80.4186 64.876C80.304 64.932 80.1613 64.9813 79.9906 65.024C79.8226 65.0693 79.632 65.092 79.4186 65.092C79.0453 65.092 78.7426 64.9893 78.5106 64.784C78.2786 64.576 78.1626 64.2893 78.1626 63.924V59.624H76.8706V59.092H78.8346ZM126.463 87.172L126.339 85.092H127.179L127.055 87.172H126.463ZM132.976 90.08C132.976 90.248 133.004 90.3707 133.06 90.448C133.116 90.5253 133.203 90.5827 133.32 90.62L133.156 91.092C132.975 91.068 132.816 91.0107 132.68 90.92C132.544 90.8267 132.446 90.6867 132.384 90.5C132.232 90.6947 132.043 90.8427 131.816 90.944C131.59 91.0427 131.339 91.092 131.064 91.092C130.643 91.092 130.311 90.9733 130.068 90.736C129.826 90.4987 129.704 90.184 129.704 89.792C129.704 89.3573 129.874 89.024 130.212 88.792C130.551 88.56 131.04 88.444 131.68 88.444H132.3V88.092C132.3 87.788 132.211 87.5733 132.032 87.448C131.856 87.32 131.611 87.256 131.296 87.256C131.158 87.256 130.995 87.2733 130.808 87.308C130.622 87.34 130.419 87.3947 130.2 87.472L130.024 86.964C130.283 86.868 130.526 86.8 130.752 86.76C130.979 86.72 131.195 86.7 131.4 86.7C131.926 86.7 132.319 86.8227 132.58 87.068C132.844 87.3107 132.976 87.6413 132.976 88.06V90.08ZM131.236 90.58C131.444 90.58 131.643 90.528 131.832 90.424C132.022 90.3173 132.178 90.1707 132.3 89.984V88.9H131.692C131.228 88.9 130.9 88.98 130.708 89.14C130.519 89.3 130.424 89.5147 130.424 89.784C130.424 90.0453 130.491 90.244 130.624 90.38C130.76 90.5133 130.964 90.58 131.236 90.58ZM136.661 90.512C136.872 90.512 137.068 90.4773 137.249 90.408C137.433 90.3387 137.602 90.2507 137.757 90.144L138.085 90.584C137.901 90.7413 137.68 90.8653 137.421 90.956C137.162 91.0467 136.909 91.092 136.661 91.092C136.242 91.092 135.885 91.0027 135.589 90.824C135.296 90.6427 135.072 90.3893 134.917 90.064C134.762 89.736 134.685 89.352 134.685 88.912C134.685 88.4907 134.762 88.1133 134.917 87.78C135.074 87.444 135.3 87.18 135.593 86.988C135.889 86.796 136.248 86.7 136.669 86.7C136.938 86.7 137.19 86.7413 137.425 86.824C137.662 86.904 137.88 87.0253 138.077 87.188L137.749 87.636C137.57 87.5107 137.39 87.4173 137.209 87.356C137.03 87.292 136.848 87.26 136.661 87.26C136.298 87.26 136 87.396 135.765 87.668C135.53 87.94 135.413 88.3547 135.413 88.912C135.413 89.2853 135.466 89.5907 135.573 89.828C135.682 90.0627 135.83 90.236 136.017 90.348C136.206 90.4573 136.421 90.512 136.661 90.512ZM141.458 90.512C141.669 90.512 141.865 90.4773 142.046 90.408C142.23 90.3387 142.399 90.2507 142.554 90.144L142.882 90.584C142.698 90.7413 142.477 90.8653 142.218 90.956C141.959 91.0467 141.706 91.092 141.458 91.092C141.039 91.092 140.682 91.0027 140.386 90.824C140.093 90.6427 139.869 90.3893 139.714 90.064C139.559 89.736 139.482 89.352 139.482 88.912C139.482 88.4907 139.559 88.1133 139.714 87.78C139.871 87.444 140.097 87.18 140.39 86.988C140.686 86.796 141.045 86.7 141.466 86.7C141.735 86.7 141.987 86.7413 142.222 86.824C142.459 86.904 142.677 87.0253 142.874 87.188L142.546 87.636C142.367 87.5107 142.187 87.4173 142.006 87.356C141.827 87.292 141.645 87.26 141.458 87.26C141.095 87.26 140.797 87.396 140.562 87.668C140.327 87.94 140.21 88.3547 140.21 88.912C140.21 89.2853 140.263 89.5907 140.37 89.828C140.479 90.0627 140.627 90.236 140.814 90.348C141.003 90.4573 141.218 90.512 141.458 90.512ZM144.879 89.132C144.892 89.4573 144.955 89.724 145.067 89.932C145.179 90.1373 145.327 90.2893 145.511 90.388C145.695 90.484 145.895 90.532 146.111 90.532C146.327 90.532 146.522 90.5 146.695 90.436C146.871 90.372 147.051 90.2773 147.235 90.152L147.551 90.596C147.354 90.7507 147.128 90.872 146.875 90.96C146.624 91.048 146.367 91.092 146.103 91.092C145.695 91.092 145.347 91 145.059 90.816C144.771 90.632 144.551 90.376 144.399 90.048C144.25 89.7173 144.175 89.3347 144.175 88.9C144.175 88.4733 144.251 88.0947 144.403 87.764C144.555 87.4333 144.768 87.1733 145.043 86.984C145.318 86.7947 145.642 86.7 146.015 86.7C146.37 86.7 146.675 86.784 146.931 86.952C147.187 87.1173 147.383 87.3547 147.519 87.664C147.658 87.9707 147.727 88.3373 147.727 88.764C147.727 88.836 147.726 88.904 147.723 88.968C147.72 89.0293 147.716 89.084 147.711 89.132H144.879ZM146.023 87.252C145.711 87.252 145.45 87.3627 145.239 87.584C145.031 87.8053 144.912 88.148 144.883 88.612H147.079C147.071 88.1613 146.972 87.8227 146.783 87.596C146.594 87.3667 146.34 87.252 146.023 87.252ZM151.032 86.7C151.405 86.7 151.702 86.7907 151.924 86.972C152.148 87.1533 152.309 87.4093 152.408 87.74C152.506 88.068 152.556 88.452 152.556 88.892C152.556 89.316 152.496 89.6947 152.376 90.028C152.258 90.3587 152.08 90.6187 151.84 90.808C151.6 90.9973 151.297 91.092 150.932 91.092C150.47 91.092 150.1 90.9293 149.82 90.604V92.612L149.148 92.696V86.788H149.72L149.776 87.376C149.93 87.16 150.114 86.9933 150.328 86.876C150.544 86.7587 150.778 86.7 151.032 86.7ZM150.872 87.24C150.64 87.24 150.434 87.3107 150.256 87.452C150.08 87.5907 149.934 87.7453 149.82 87.916V90.004C149.929 90.1667 150.066 90.296 150.232 90.392C150.4 90.4853 150.584 90.532 150.784 90.532C151.133 90.532 151.396 90.3987 151.572 90.132C151.748 89.8653 151.836 89.4507 151.836 88.888C151.836 88.52 151.801 88.2147 151.732 87.972C151.662 87.7267 151.557 87.544 151.416 87.424C151.274 87.3013 151.093 87.24 150.872 87.24ZM157.289 90.788C157.145 90.884 156.97 90.9587 156.765 91.012C156.559 91.0653 156.358 91.092 156.161 91.092C155.707 91.092 155.358 90.9733 155.113 90.736C154.867 90.4987 154.745 90.1933 154.745 89.82V87.308H153.777V86.788H154.745V85.832L155.417 85.752V86.788H156.873L156.793 87.308H155.417V89.812C155.417 90.0467 155.478 90.2253 155.601 90.348C155.726 90.4707 155.933 90.532 156.221 90.532C156.378 90.532 156.523 90.5133 156.657 90.476C156.79 90.4387 156.914 90.3907 157.029 90.332L157.289 90.788ZM159.686 90.44C159.686 90.2667 159.747 90.116 159.87 89.988C159.995 89.86 160.148 89.796 160.33 89.796C160.516 89.796 160.671 89.86 160.794 89.988C160.919 90.116 160.982 90.2667 160.982 90.44C160.982 90.6213 160.919 90.776 160.794 90.904C160.671 91.0293 160.516 91.092 160.33 91.092C160.148 91.092 159.995 91.0293 159.87 90.904C159.747 90.776 159.686 90.6213 159.686 90.44ZM159.686 87.556C159.686 87.4333 159.714 87.324 159.77 87.228C159.826 87.132 159.903 87.056 160.002 87C160.1 86.9413 160.21 86.912 160.33 86.912C160.516 86.912 160.671 86.9747 160.794 87.1C160.919 87.2253 160.982 87.3773 160.982 87.556C160.982 87.732 160.919 87.8853 160.794 88.016C160.671 88.144 160.516 88.208 160.33 88.208C160.148 88.208 159.995 88.144 159.87 88.016C159.747 87.8853 159.686 87.732 159.686 87.556ZM171.351 90.08C171.351 90.248 171.379 90.3707 171.435 90.448C171.491 90.5253 171.578 90.5827 171.695 90.62L171.531 91.092C171.35 91.068 171.191 91.0107 171.055 90.92C170.919 90.8267 170.821 90.6867 170.759 90.5C170.607 90.6947 170.418 90.8427 170.191 90.944C169.965 91.0427 169.714 91.092 169.439 91.092C169.018 91.092 168.686 90.9733 168.443 90.736C168.201 90.4987 168.079 90.184 168.079 89.792C168.079 89.3573 168.249 89.024 168.587 88.792C168.926 88.56 169.415 88.444 170.055 88.444H170.675V88.092C170.675 87.788 170.586 87.5733 170.407 87.448C170.231 87.32 169.986 87.256 169.671 87.256C169.533 87.256 169.37 87.2733 169.183 87.308C168.997 87.34 168.794 87.3947 168.575 87.472L168.399 86.964C168.658 86.868 168.901 86.8 169.127 86.76C169.354 86.72 169.57 86.7 169.775 86.7C170.301 86.7 170.694 86.8227 170.955 87.068C171.219 87.3107 171.351 87.6413 171.351 88.06V90.08ZM169.611 90.58C169.819 90.58 170.018 90.528 170.207 90.424C170.397 90.3173 170.553 90.1707 170.675 89.984V88.9H170.067C169.603 88.9 169.275 88.98 169.083 89.14C168.894 89.3 168.799 89.5147 168.799 89.784C168.799 90.0453 168.866 90.244 168.999 90.38C169.135 90.5133 169.339 90.58 169.611 90.58ZM175.016 86.7C175.389 86.7 175.687 86.7907 175.908 86.972C176.132 87.1533 176.293 87.4093 176.392 87.74C176.491 88.068 176.54 88.452 176.54 88.892C176.54 89.316 176.48 89.6947 176.36 90.028C176.243 90.3587 176.064 90.6187 175.824 90.808C175.584 90.9973 175.281 91.092 174.916 91.092C174.455 91.092 174.084 90.9293 173.804 90.604V92.612L173.132 92.696V86.788H173.704L173.76 87.376C173.915 87.16 174.099 86.9933 174.312 86.876C174.528 86.7587 174.763 86.7 175.016 86.7ZM174.856 87.24C174.624 87.24 174.419 87.3107 174.24 87.452C174.064 87.5907 173.919 87.7453 173.804 87.916V90.004C173.913 90.1667 174.051 90.296 174.216 90.392C174.384 90.4853 174.568 90.532 174.768 90.532C175.117 90.532 175.38 90.3987 175.556 90.132C175.732 89.8653 175.82 89.4507 175.82 88.888C175.82 88.52 175.785 88.2147 175.716 87.972C175.647 87.7267 175.541 87.544 175.4 87.424C175.259 87.3013 175.077 87.24 174.856 87.24ZM179.813 86.7C180.186 86.7 180.484 86.7907 180.705 86.972C180.929 87.1533 181.09 87.4093 181.189 87.74C181.288 88.068 181.337 88.452 181.337 88.892C181.337 89.316 181.277 89.6947 181.157 90.028C181.04 90.3587 180.861 90.6187 180.621 90.808C180.381 90.9973 180.078 91.092 179.713 91.092C179.252 91.092 178.881 90.9293 178.601 90.604V92.612L177.929 92.696V86.788H178.501L178.557 87.376C178.712 87.16 178.896 86.9933 179.109 86.876C179.325 86.7587 179.56 86.7 179.813 86.7ZM179.653 87.24C179.421 87.24 179.216 87.3107 179.037 87.452C178.861 87.5907 178.716 87.7453 178.601 87.916V90.004C178.71 90.1667 178.848 90.296 179.013 90.392C179.181 90.4853 179.365 90.532 179.565 90.532C179.914 90.532 180.177 90.3987 180.353 90.132C180.529 89.8653 180.617 89.4507 180.617 88.888C180.617 88.52 180.582 88.2147 180.513 87.972C180.444 87.7267 180.338 87.544 180.197 87.424C180.056 87.3013 179.874 87.24 179.653 87.24ZM184.366 85.092V89.96C184.366 90.168 184.43 90.316 184.558 90.404C184.689 90.4893 184.857 90.532 185.062 90.532C185.19 90.532 185.311 90.5187 185.426 90.492C185.541 90.4653 185.655 90.4293 185.77 90.384L185.95 90.876C185.835 90.932 185.693 90.9813 185.522 91.024C185.354 91.0693 185.163 91.092 184.95 91.092C184.577 91.092 184.274 90.9893 184.042 90.784C183.81 90.576 183.694 90.2893 183.694 89.924V85.624H182.402V85.092H184.366ZM189.655 86.788V90.468H190.843V91H187.683V90.468H188.983V87.32H187.723V86.788H189.655ZM189.119 84.816C189.268 84.816 189.387 84.8613 189.475 84.952C189.565 85.0427 189.611 85.1533 189.611 85.284C189.611 85.42 189.565 85.5347 189.475 85.628C189.387 85.7187 189.268 85.764 189.119 85.764C188.977 85.764 188.861 85.7187 188.771 85.628C188.68 85.5347 188.635 85.42 188.635 85.284C188.635 85.1533 188.68 85.0427 188.771 84.952C188.861 84.8613 188.977 84.816 189.119 84.816ZM194.224 90.512C194.434 90.512 194.63 90.4773 194.812 90.408C194.996 90.3387 195.165 90.2507 195.32 90.144L195.648 90.584C195.464 90.7413 195.242 90.8653 194.984 90.956C194.725 91.0467 194.472 91.092 194.224 91.092C193.805 91.092 193.448 91.0027 193.152 90.824C192.858 90.6427 192.634 90.3893 192.48 90.064C192.325 89.736 192.248 89.352 192.248 88.912C192.248 88.4907 192.325 88.1133 192.48 87.78C192.637 87.444 192.862 87.18 193.156 86.988C193.452 86.796 193.81 86.7 194.232 86.7C194.501 86.7 194.753 86.7413 194.988 86.824C195.225 86.904 195.442 87.0253 195.64 87.188L195.312 87.636C195.133 87.5107 194.953 87.4173 194.772 87.356C194.593 87.292 194.41 87.26 194.224 87.26C193.861 87.26 193.562 87.396 193.328 87.668C193.093 87.94 192.976 88.3547 192.976 88.912C192.976 89.2853 193.029 89.5907 193.136 89.828C193.245 90.0627 193.393 90.236 193.58 90.348C193.769 90.4573 193.984 90.512 194.224 90.512ZM200.133 90.08C200.133 90.248 200.161 90.3707 200.217 90.448C200.273 90.5253 200.359 90.5827 200.477 90.62L200.312 91.092C200.131 91.068 199.973 91.0107 199.837 90.92C199.701 90.8267 199.602 90.6867 199.541 90.5C199.389 90.6947 199.199 90.8427 198.973 90.944C198.746 91.0427 198.495 91.092 198.221 91.092C197.799 91.092 197.467 90.9733 197.225 90.736C196.982 90.4987 196.861 90.184 196.861 89.792C196.861 89.3573 197.03 89.024 197.368 88.792C197.707 88.56 198.197 88.444 198.837 88.444H199.457V88.092C199.457 87.788 199.367 87.5733 199.189 87.448C199.013 87.32 198.767 87.256 198.453 87.256C198.314 87.256 198.151 87.2733 197.965 87.308C197.778 87.34 197.575 87.3947 197.357 87.472L197.181 86.964C197.439 86.868 197.682 86.8 197.909 86.76C198.135 86.72 198.351 86.7 198.557 86.7C199.082 86.7 199.475 86.8227 199.737 87.068C200.001 87.3107 200.133 87.6413 200.133 88.06V90.08ZM198.393 90.58C198.601 90.58 198.799 90.528 198.989 90.424C199.178 90.3173 199.334 90.1707 199.457 89.984V88.9H198.849C198.385 88.9 198.057 88.98 197.865 89.14C197.675 89.3 197.581 89.5147 197.581 89.784C197.581 90.0453 197.647 90.244 197.781 90.38C197.917 90.5133 198.121 90.58 198.393 90.58ZM205.257 90.788C205.113 90.884 204.939 90.9587 204.733 91.012C204.528 91.0653 204.327 91.092 204.129 91.092C203.676 91.092 203.327 90.9733 203.081 90.736C202.836 90.4987 202.713 90.1933 202.713 89.82V87.308H201.745V86.788H202.713V85.832L203.385 85.752V86.788H204.841L204.761 87.308H203.385V89.812C203.385 90.0467 203.447 90.2253 203.569 90.348C203.695 90.4707 203.901 90.532 204.189 90.532C204.347 90.532 204.492 90.5133 204.625 90.476C204.759 90.4387 204.883 90.3907 204.997 90.332L205.257 90.788ZM208.842 86.788V90.468H210.03V91H206.87V90.468H208.17V87.32H206.91V86.788H208.842ZM208.306 84.816C208.456 84.816 208.574 84.8613 208.662 84.952C208.753 85.0427 208.798 85.1533 208.798 85.284C208.798 85.42 208.753 85.5347 208.662 85.628C208.574 85.7187 208.456 85.764 208.306 85.764C208.165 85.764 208.049 85.7187 207.958 85.628C207.868 85.5347 207.822 85.42 207.822 85.284C207.822 85.1533 207.868 85.0427 207.958 84.952C208.049 84.8613 208.165 84.816 208.306 84.816ZM213.111 86.7C213.508 86.7 213.84 86.7907 214.107 86.972C214.376 87.1507 214.578 87.404 214.711 87.732C214.847 88.06 214.915 88.4467 214.915 88.892C214.915 89.3213 214.846 89.7013 214.707 90.032C214.568 90.3627 214.364 90.6227 214.095 90.812C213.828 90.9987 213.498 91.092 213.103 91.092C212.708 91.092 212.376 91.0013 212.107 90.82C211.838 90.6387 211.634 90.384 211.495 90.056C211.359 89.7253 211.291 89.34 211.291 88.9C211.291 88.4653 211.36 88.0827 211.499 87.752C211.638 87.4213 211.842 87.164 212.111 86.98C212.383 86.7933 212.716 86.7 213.111 86.7ZM213.111 87.248C212.748 87.248 212.474 87.3827 212.287 87.652C212.103 87.9187 212.011 88.3347 212.011 88.9C212.011 89.4547 212.102 89.8667 212.283 90.136C212.467 90.4053 212.74 90.54 213.103 90.54C213.466 90.54 213.738 90.4053 213.919 90.136C214.103 89.8667 214.195 89.452 214.195 88.892C214.195 88.332 214.104 87.9187 213.923 87.652C213.742 87.3827 213.471 87.248 213.111 87.248ZM216.304 91V86.788H216.876L216.928 87.372C217.099 87.156 217.312 86.9907 217.568 86.876C217.827 86.7587 218.077 86.7 218.32 86.7C218.733 86.7 219.033 86.8093 219.22 87.028C219.409 87.2467 219.504 87.5507 219.504 87.94V91H218.832V88.436C218.832 88.148 218.816 87.916 218.784 87.74C218.752 87.5613 218.685 87.432 218.584 87.352C218.483 87.2693 218.325 87.228 218.112 87.228C217.947 87.228 217.791 87.264 217.644 87.336C217.5 87.408 217.371 87.4987 217.256 87.608C217.144 87.7147 217.051 87.8227 216.976 87.932V91H216.304ZM221.261 91.824L220.717 91.584L224.141 84.524L224.677 84.788L221.261 91.824ZM228.654 86.788V90.324C228.654 90.7933 228.548 91.1853 228.338 91.5C228.127 91.8173 227.822 92.072 227.422 92.264C227.022 92.456 226.538 92.6 225.97 92.696L225.858 92.176C226.274 92.1067 226.642 92.0027 226.962 91.864C227.282 91.7253 227.531 91.5347 227.71 91.292C227.891 91.052 227.982 90.744 227.982 90.368V87.32H226.23V86.788H228.654ZM228.026 84.816C228.175 84.816 228.295 84.8613 228.386 84.952C228.476 85.0427 228.522 85.1533 228.522 85.284C228.522 85.42 228.476 85.5347 228.386 85.628C228.295 85.7187 228.175 85.764 228.026 85.764C227.882 85.764 227.766 85.7187 227.678 85.628C227.59 85.5347 227.546 85.42 227.546 85.284C227.546 85.1533 227.59 85.0427 227.678 84.952C227.766 84.8613 227.882 84.816 228.026 84.816ZM232.127 90.536C232.449 90.536 232.704 90.476 232.891 90.356C233.08 90.2333 233.175 90.0707 233.175 89.868C233.175 89.74 233.151 89.6293 233.103 89.536C233.057 89.4427 232.963 89.3587 232.819 89.284C232.675 89.2093 232.453 89.1347 232.155 89.06C231.864 88.988 231.611 88.9053 231.395 88.812C231.181 88.716 231.015 88.592 230.895 88.44C230.777 88.288 230.719 88.0907 230.719 87.848C230.719 87.6107 230.785 87.4067 230.919 87.236C231.055 87.0627 231.243 86.9307 231.483 86.84C231.723 86.7467 232.001 86.7 232.319 86.7C232.657 86.7 232.952 86.7453 233.203 86.836C233.456 86.924 233.671 87.0333 233.847 87.164L233.551 87.62C233.391 87.5107 233.215 87.4213 233.023 87.352C232.831 87.28 232.599 87.244 232.327 87.244C231.996 87.244 231.761 87.296 231.623 87.4C231.484 87.5013 231.415 87.6333 231.415 87.796C231.415 87.9187 231.448 88.0213 231.515 88.104C231.584 88.184 231.7 88.2573 231.863 88.324C232.025 88.388 232.249 88.4587 232.535 88.536C232.809 88.608 233.048 88.6947 233.251 88.796C233.456 88.8973 233.616 89.0307 233.731 89.196C233.845 89.3613 233.903 89.5747 233.903 89.836C233.903 90.1347 233.817 90.3773 233.647 90.564C233.476 90.748 233.255 90.8827 232.983 90.968C232.713 91.0507 232.428 91.092 232.127 91.092C231.745 91.092 231.42 91.0373 231.151 90.928C230.884 90.816 230.66 90.6813 230.479 90.524L230.863 90.08C231.028 90.216 231.217 90.3267 231.431 90.412C231.647 90.4947 231.879 90.536 232.127 90.536ZM237.096 86.7C237.493 86.7 237.825 86.7907 238.092 86.972C238.361 87.1507 238.562 87.404 238.696 87.732C238.832 88.06 238.9 88.4467 238.9 88.892C238.9 89.3213 238.83 89.7013 238.692 90.032C238.553 90.3627 238.349 90.6227 238.08 90.812C237.813 90.9987 237.482 91.092 237.088 91.092C236.693 91.092 236.361 91.0013 236.092 90.82C235.822 90.6387 235.618 90.384 235.48 90.056C235.344 89.7253 235.275 89.34 235.275 88.9C235.275 88.4653 235.345 88.0827 235.484 87.752C235.622 87.4213 235.826 87.164 236.096 86.98C236.368 86.7933 236.701 86.7 237.096 86.7ZM237.096 87.248C236.733 87.248 236.458 87.3827 236.272 87.652C236.088 87.9187 235.996 88.3347 235.996 88.9C235.996 89.4547 236.086 89.8667 236.268 90.136C236.452 90.4053 236.725 90.54 237.088 90.54C237.45 90.54 237.722 90.4053 237.904 90.136C238.088 89.8667 238.18 89.452 238.18 88.892C238.18 88.332 238.089 87.9187 237.908 87.652C237.726 87.3827 237.456 87.248 237.096 87.248ZM240.288 91V86.788H240.86L240.912 87.372C241.083 87.156 241.296 86.9907 241.552 86.876C241.811 86.7587 242.062 86.7 242.304 86.7C242.718 86.7 243.018 86.8093 243.204 87.028C243.394 87.2467 243.488 87.5507 243.488 87.94V91H242.816V88.436C242.816 88.148 242.8 87.916 242.768 87.74C242.736 87.5613 242.67 87.432 242.568 87.352C242.467 87.2693 242.31 87.228 242.096 87.228C241.931 87.228 241.775 87.264 241.628 87.336C241.484 87.408 241.355 87.4987 241.24 87.608C241.128 87.7147 241.035 87.8227 240.96 87.932V91H240.288ZM126.463 100.172L126.339 98.092H127.179L127.055 100.172H126.463ZM131.864 103.512C132.075 103.512 132.271 103.477 132.452 103.408C132.636 103.339 132.806 103.251 132.96 103.144L133.288 103.584C133.104 103.741 132.883 103.865 132.624 103.956C132.366 104.047 132.112 104.092 131.864 104.092C131.446 104.092 131.088 104.003 130.792 103.824C130.499 103.643 130.275 103.389 130.12 103.064C129.966 102.736 129.888 102.352 129.888 101.912C129.888 101.491 129.966 101.113 130.12 100.78C130.278 100.444 130.503 100.18 130.796 99.988C131.092 99.796 131.451 99.7 131.872 99.7C132.142 99.7 132.394 99.7413 132.628 99.824C132.866 99.904 133.083 100.025 133.28 100.188L132.952 100.636C132.774 100.511 132.594 100.417 132.412 100.356C132.234 100.292 132.051 100.26 131.864 100.26C131.502 100.26 131.203 100.396 130.968 100.668C130.734 100.94 130.616 101.355 130.616 101.912C130.616 102.285 130.67 102.591 130.776 102.828C130.886 103.063 131.034 103.236 131.22 103.348C131.41 103.457 131.624 103.512 131.864 103.512ZM136.361 99.7C136.758 99.7 137.09 99.7907 137.357 99.972C137.626 100.151 137.828 100.404 137.961 100.732C138.097 101.06 138.165 101.447 138.165 101.892C138.165 102.321 138.096 102.701 137.957 103.032C137.818 103.363 137.614 103.623 137.345 103.812C137.078 103.999 136.748 104.092 136.353 104.092C135.958 104.092 135.626 104.001 135.357 103.82C135.088 103.639 134.884 103.384 134.745 103.056C134.609 102.725 134.541 102.34 134.541 101.9C134.541 101.465 134.61 101.083 134.749 100.752C134.888 100.421 135.092 100.164 135.361 99.98C135.633 99.7933 135.966 99.7 136.361 99.7ZM136.361 100.248C135.998 100.248 135.724 100.383 135.537 100.652C135.353 100.919 135.261 101.335 135.261 101.9C135.261 102.455 135.352 102.867 135.533 103.136C135.717 103.405 135.99 103.54 136.353 103.54C136.716 103.54 136.988 103.405 137.169 103.136C137.353 102.867 137.445 102.452 137.445 101.892C137.445 101.332 137.354 100.919 137.173 100.652C136.992 100.383 136.721 100.248 136.361 100.248ZM139.554 104V99.788H140.126L140.178 100.372C140.349 100.156 140.562 99.9907 140.818 99.876C141.077 99.7587 141.327 99.7 141.57 99.7C141.983 99.7 142.283 99.8093 142.47 100.028C142.659 100.247 142.754 100.551 142.754 100.94V104H142.082V101.436C142.082 101.148 142.066 100.916 142.034 100.74C142.002 100.561 141.935 100.432 141.834 100.352C141.733 100.269 141.575 100.228 141.362 100.228C141.197 100.228 141.041 100.264 140.894 100.336C140.75 100.408 140.621 100.499 140.506 100.608C140.394 100.715 140.301 100.823 140.226 100.932V104H139.554ZM147.695 103.788C147.551 103.884 147.376 103.959 147.171 104.012C146.966 104.065 146.764 104.092 146.567 104.092C146.114 104.092 145.764 103.973 145.519 103.736C145.274 103.499 145.151 103.193 145.151 102.82V100.308H144.183V99.788H145.151V98.832L145.823 98.752V99.788H147.279L147.199 100.308H145.823V102.812C145.823 103.047 145.884 103.225 146.007 103.348C146.132 103.471 146.339 103.532 146.627 103.532C146.784 103.532 146.93 103.513 147.063 103.476C147.196 103.439 147.32 103.391 147.435 103.332L147.695 103.788ZM149.676 102.132C149.689 102.457 149.752 102.724 149.864 102.932C149.976 103.137 150.124 103.289 150.308 103.388C150.492 103.484 150.692 103.532 150.908 103.532C151.124 103.532 151.318 103.5 151.492 103.436C151.668 103.372 151.848 103.277 152.032 103.152L152.348 103.596C152.15 103.751 151.925 103.872 151.672 103.96C151.421 104.048 151.164 104.092 150.9 104.092C150.492 104.092 150.144 104 149.856 103.816C149.568 103.632 149.348 103.376 149.196 103.048C149.046 102.717 148.972 102.335 148.972 101.9C148.972 101.473 149.048 101.095 149.2 100.764C149.352 100.433 149.565 100.173 149.84 99.984C150.114 99.7947 150.438 99.7 150.812 99.7C151.166 99.7 151.472 99.784 151.728 99.952C151.984 100.117 152.18 100.355 152.316 100.664C152.454 100.971 152.524 101.337 152.524 101.764C152.524 101.836 152.522 101.904 152.52 101.968C152.517 102.029 152.513 102.084 152.508 102.132H149.676ZM150.82 100.252C150.508 100.252 150.246 100.363 150.036 100.584C149.828 100.805 149.709 101.148 149.68 101.612H151.876C151.868 101.161 151.769 100.823 151.58 100.596C151.39 100.367 151.137 100.252 150.82 100.252ZM153.945 104V99.788H154.517L154.569 100.372C154.739 100.156 154.953 99.9907 155.209 99.876C155.467 99.7587 155.718 99.7 155.961 99.7C156.374 99.7 156.674 99.8093 156.861 100.028C157.05 100.247 157.145 100.551 157.145 100.94V104H156.473V101.436C156.473 101.148 156.457 100.916 156.425 100.74C156.393 100.561 156.326 100.432 156.225 100.352C156.123 100.269 155.966 100.228 155.753 100.228C155.587 100.228 155.431 100.264 155.285 100.336C155.141 100.408 155.011 100.499 154.897 100.608C154.785 100.715 154.691 100.823 154.617 100.932V104H153.945ZM162.086 103.788C161.942 103.884 161.767 103.959 161.562 104.012C161.356 104.065 161.155 104.092 160.958 104.092C160.504 104.092 160.155 103.973 159.91 103.736C159.664 103.499 159.542 103.193 159.542 102.82V100.308H158.574V99.788H159.542V98.832L160.214 98.752V99.788H161.67L161.59 100.308H160.214V102.812C160.214 103.047 160.275 103.225 160.398 103.348C160.523 103.471 160.73 103.532 161.018 103.532C161.175 103.532 161.32 103.513 161.454 103.476C161.587 103.439 161.711 103.391 161.826 103.332L162.086 103.788ZM163.53 102.108V101.524H166.738V102.108H163.53ZM171.679 103.788C171.535 103.884 171.361 103.959 171.155 104.012C170.95 104.065 170.749 104.092 170.551 104.092C170.098 104.092 169.749 103.973 169.503 103.736C169.258 103.499 169.135 103.193 169.135 102.82V100.308H168.167V99.788H169.135V98.832L169.807 98.752V99.788H171.263L171.183 100.308H169.807V102.812C169.807 103.047 169.869 103.225 169.991 103.348C170.117 103.471 170.323 103.532 170.611 103.532C170.769 103.532 170.914 103.513 171.047 103.476C171.181 103.439 171.305 103.391 171.419 103.332L171.679 103.788ZM176.636 99.788L175.156 104.028C175.057 104.313 174.932 104.575 174.78 104.812C174.631 105.049 174.435 105.245 174.192 105.4C173.952 105.557 173.647 105.655 173.276 105.692L173.172 105.156C173.463 105.108 173.692 105.035 173.86 104.936C174.028 104.837 174.16 104.711 174.256 104.556C174.355 104.401 174.441 104.216 174.516 104H174.292L172.82 99.788H173.54L174.748 103.488L175.94 99.788H176.636ZM179.813 99.7C180.186 99.7 180.484 99.7907 180.705 99.972C180.929 100.153 181.09 100.409 181.189 100.74C181.288 101.068 181.337 101.452 181.337 101.892C181.337 102.316 181.277 102.695 181.157 103.028C181.04 103.359 180.861 103.619 180.621 103.808C180.381 103.997 180.078 104.092 179.713 104.092C179.252 104.092 178.881 103.929 178.601 103.604V105.612L177.929 105.696V99.788H178.501L178.557 100.376C178.712 100.16 178.896 99.9933 179.109 99.876C179.325 99.7587 179.56 99.7 179.813 99.7ZM179.653 100.24C179.421 100.24 179.216 100.311 179.037 100.452C178.861 100.591 178.716 100.745 178.601 100.916V103.004C178.71 103.167 178.848 103.296 179.013 103.392C179.181 103.485 179.365 103.532 179.565 103.532C179.914 103.532 180.177 103.399 180.353 103.132C180.529 102.865 180.617 102.451 180.617 101.888C180.617 101.52 180.582 101.215 180.513 100.972C180.444 100.727 180.338 100.544 180.197 100.424C180.056 100.301 179.874 100.24 179.653 100.24ZM183.254 102.132C183.267 102.457 183.33 102.724 183.442 102.932C183.554 103.137 183.702 103.289 183.886 103.388C184.07 103.484 184.27 103.532 184.486 103.532C184.702 103.532 184.897 103.5 185.07 103.436C185.246 103.372 185.426 103.277 185.61 103.152L185.926 103.596C185.729 103.751 185.503 103.872 185.25 103.96C184.999 104.048 184.742 104.092 184.478 104.092C184.07 104.092 183.722 104 183.434 103.816C183.146 103.632 182.926 103.376 182.774 103.048C182.625 102.717 182.55 102.335 182.55 101.9C182.55 101.473 182.626 101.095 182.778 100.764C182.93 100.433 183.143 100.173 183.418 99.984C183.693 99.7947 184.017 99.7 184.39 99.7C184.745 99.7 185.05 99.784 185.306 99.952C185.562 100.117 185.758 100.355 185.894 100.664C186.033 100.971 186.102 101.337 186.102 101.764C186.102 101.836 186.101 101.904 186.098 101.968C186.095 102.029 186.091 102.084 186.086 102.132H183.254ZM184.398 100.252C184.086 100.252 183.825 100.363 183.614 100.584C183.406 100.805 183.287 101.148 183.258 101.612H185.454C185.446 101.161 185.347 100.823 185.158 100.596C184.969 100.367 184.715 100.252 184.398 100.252ZM188.467 103.44C188.467 103.267 188.528 103.116 188.651 102.988C188.776 102.86 188.929 102.796 189.111 102.796C189.297 102.796 189.452 102.86 189.575 102.988C189.7 103.116 189.763 103.267 189.763 103.44C189.763 103.621 189.7 103.776 189.575 103.904C189.452 104.029 189.297 104.092 189.111 104.092C188.929 104.092 188.776 104.029 188.651 103.904C188.528 103.776 188.467 103.621 188.467 103.44ZM188.467 100.556C188.467 100.433 188.495 100.324 188.551 100.228C188.607 100.132 188.684 100.056 188.783 100C188.881 99.9413 188.991 99.912 189.111 99.912C189.297 99.912 189.452 99.9747 189.575 100.1C189.7 100.225 189.763 100.377 189.763 100.556C189.763 100.732 189.7 100.885 189.575 101.016C189.452 101.144 189.297 101.208 189.111 101.208C188.929 101.208 188.776 101.144 188.651 101.016C188.528 100.885 188.467 100.732 188.467 100.556ZM200.133 103.08C200.133 103.248 200.161 103.371 200.217 103.448C200.273 103.525 200.359 103.583 200.477 103.62L200.312 104.092C200.131 104.068 199.973 104.011 199.837 103.92C199.701 103.827 199.602 103.687 199.541 103.5C199.389 103.695 199.199 103.843 198.973 103.944C198.746 104.043 198.495 104.092 198.221 104.092C197.799 104.092 197.467 103.973 197.225 103.736C196.982 103.499 196.861 103.184 196.861 102.792C196.861 102.357 197.03 102.024 197.368 101.792C197.707 101.56 198.197 101.444 198.837 101.444H199.457V101.092C199.457 100.788 199.367 100.573 199.189 100.448C199.013 100.32 198.767 100.256 198.453 100.256C198.314 100.256 198.151 100.273 197.965 100.308C197.778 100.34 197.575 100.395 197.357 100.472L197.181 99.964C197.439 99.868 197.682 99.8 197.909 99.76C198.135 99.72 198.351 99.7 198.557 99.7C199.082 99.7 199.475 99.8227 199.737 100.068C200.001 100.311 200.133 100.641 200.133 101.06V103.08ZM198.393 103.58C198.601 103.58 198.799 103.528 198.989 103.424C199.178 103.317 199.334 103.171 199.457 102.984V101.9H198.849C198.385 101.9 198.057 101.98 197.865 102.14C197.675 102.3 197.581 102.515 197.581 102.784C197.581 103.045 197.647 103.244 197.781 103.38C197.917 103.513 198.121 103.58 198.393 103.58ZM203.797 99.7C204.171 99.7 204.468 99.7907 204.689 99.972C204.913 100.153 205.075 100.409 205.173 100.74C205.272 101.068 205.321 101.452 205.321 101.892C205.321 102.316 205.261 102.695 205.141 103.028C205.024 103.359 204.845 103.619 204.605 103.808C204.365 103.997 204.063 104.092 203.697 104.092C203.236 104.092 202.865 103.929 202.585 103.604V105.612L201.913 105.696V99.788H202.485L202.541 100.376C202.696 100.16 202.88 99.9933 203.093 99.876C203.309 99.7587 203.544 99.7 203.797 99.7ZM203.637 100.24C203.405 100.24 203.2 100.311 203.021 100.452C202.845 100.591 202.7 100.745 202.585 100.916V103.004C202.695 103.167 202.832 103.296 202.997 103.392C203.165 103.485 203.349 103.532 203.549 103.532C203.899 103.532 204.161 103.399 204.337 103.132C204.513 102.865 204.601 102.451 204.601 101.888C204.601 101.52 204.567 101.215 204.497 100.972C204.428 100.727 204.323 100.544 204.181 100.424C204.04 100.301 203.859 100.24 203.637 100.24ZM208.594 99.7C208.968 99.7 209.265 99.7907 209.486 99.972C209.71 100.153 209.872 100.409 209.97 100.74C210.069 101.068 210.118 101.452 210.118 101.892C210.118 102.316 210.058 102.695 209.938 103.028C209.821 103.359 209.642 103.619 209.402 103.808C209.162 103.997 208.86 104.092 208.494 104.092C208.033 104.092 207.662 103.929 207.382 103.604V105.612L206.71 105.696V99.788H207.282L207.338 100.376C207.493 100.16 207.677 99.9933 207.89 99.876C208.106 99.7587 208.341 99.7 208.594 99.7ZM208.434 100.24C208.202 100.24 207.997 100.311 207.818 100.452C207.642 100.591 207.497 100.745 207.382 100.916V103.004C207.492 103.167 207.629 103.296 207.794 103.392C207.962 103.485 208.146 103.532 208.346 103.532C208.696 103.532 208.958 103.399 209.134 103.132C209.31 102.865 209.398 102.451 209.398 101.888C209.398 101.52 209.364 101.215 209.294 100.972C209.225 100.727 209.12 100.544 208.978 100.424C208.837 100.301 208.656 100.24 208.434 100.24ZM213.147 98.092V102.96C213.147 103.168 213.211 103.316 213.339 103.404C213.47 103.489 213.638 103.532 213.843 103.532C213.971 103.532 214.092 103.519 214.207 103.492C214.322 103.465 214.436 103.429 214.551 103.384L214.731 103.876C214.616 103.932 214.474 103.981 214.303 104.024C214.135 104.069 213.944 104.092 213.731 104.092C213.358 104.092 213.055 103.989 212.823 103.784C212.591 103.576 212.475 103.289 212.475 102.924V98.624H211.183V98.092H213.147ZM218.436 99.788V103.468H219.624V104H216.464V103.468H217.764V100.32H216.504V99.788H218.436ZM217.9 97.816C218.049 97.816 218.168 97.8613 218.256 97.952C218.347 98.0427 218.392 98.1533 218.392 98.284C218.392 98.42 218.347 98.5347 218.256 98.628C218.168 98.7187 218.049 98.764 217.9 98.764C217.759 98.764 217.643 98.7187 217.552 98.628C217.461 98.5347 217.416 98.42 217.416 98.284C217.416 98.1533 217.461 98.0427 217.552 97.952C217.643 97.8613 217.759 97.816 217.9 97.816ZM223.005 103.512C223.216 103.512 223.412 103.477 223.593 103.408C223.777 103.339 223.946 103.251 224.101 103.144L224.429 103.584C224.245 103.741 224.024 103.865 223.765 103.956C223.506 104.047 223.253 104.092 223.005 104.092C222.586 104.092 222.229 104.003 221.933 103.824C221.64 103.643 221.416 103.389 221.261 103.064C221.106 102.736 221.029 102.352 221.029 101.912C221.029 101.491 221.106 101.113 221.261 100.78C221.418 100.444 221.644 100.18 221.937 99.988C222.233 99.796 222.592 99.7 223.013 99.7C223.282 99.7 223.534 99.7413 223.769 99.824C224.006 99.904 224.224 100.025 224.421 100.188L224.093 100.636C223.914 100.511 223.734 100.417 223.553 100.356C223.374 100.292 223.192 100.26 223.005 100.26C222.642 100.26 222.344 100.396 222.109 100.668C221.874 100.94 221.757 101.355 221.757 101.912C221.757 102.285 221.81 102.591 221.917 102.828C222.026 103.063 222.174 103.236 222.361 103.348C222.55 103.457 222.765 103.512 223.005 103.512ZM228.914 103.08C228.914 103.248 228.942 103.371 228.998 103.448C229.054 103.525 229.14 103.583 229.258 103.62L229.094 104.092C228.912 104.068 228.754 104.011 228.618 103.92C228.482 103.827 228.383 103.687 228.322 103.5C228.17 103.695 227.98 103.843 227.754 103.944C227.527 104.043 227.276 104.092 227.002 104.092C226.58 104.092 226.248 103.973 226.006 103.736C225.763 103.499 225.642 103.184 225.642 102.792C225.642 102.357 225.811 102.024 226.15 101.792C226.488 101.56 226.978 101.444 227.618 101.444H228.238V101.092C228.238 100.788 228.148 100.573 227.97 100.448C227.794 100.32 227.548 100.256 227.234 100.256C227.095 100.256 226.932 100.273 226.746 100.308C226.559 100.34 226.356 100.395 226.138 100.472L225.962 99.964C226.22 99.868 226.463 99.8 226.69 99.76C226.916 99.72 227.132 99.7 227.338 99.7C227.863 99.7 228.256 99.8227 228.518 100.068C228.782 100.311 228.914 100.641 228.914 101.06V103.08ZM227.174 103.58C227.382 103.58 227.58 103.528 227.77 103.424C227.959 103.317 228.115 103.171 228.238 102.984V101.9H227.63C227.166 101.9 226.838 101.98 226.646 102.14C226.456 102.3 226.362 102.515 226.362 102.784C226.362 103.045 226.428 103.244 226.562 103.38C226.698 103.513 226.902 103.58 227.174 103.58ZM234.039 103.788C233.895 103.884 233.72 103.959 233.515 104.012C233.309 104.065 233.108 104.092 232.911 104.092C232.457 104.092 232.108 103.973 231.863 103.736C231.617 103.499 231.495 103.193 231.495 102.82V100.308H230.527V99.788H231.495V98.832L232.167 98.752V99.788H233.623L233.543 100.308H232.167V102.812C232.167 103.047 232.228 103.225 232.351 103.348C232.476 103.471 232.683 103.532 232.971 103.532C233.128 103.532 233.273 103.513 233.407 103.476C233.54 103.439 233.664 103.391 233.779 103.332L234.039 103.788ZM237.624 99.788V103.468H238.812V104H235.652V103.468H236.952V100.32H235.692V99.788H237.624ZM237.088 97.816C237.237 97.816 237.356 97.8613 237.444 97.952C237.534 98.0427 237.58 98.1533 237.58 98.284C237.58 98.42 237.534 98.5347 237.444 98.628C237.356 98.7187 237.237 98.764 237.088 98.764C236.946 98.764 236.83 98.7187 236.74 98.628C236.649 98.5347 236.604 98.42 236.604 98.284C236.604 98.1533 236.649 98.0427 236.74 97.952C236.83 97.8613 236.946 97.816 237.088 97.816ZM241.892 99.7C242.29 99.7 242.622 99.7907 242.888 99.972C243.158 100.151 243.359 100.404 243.492 100.732C243.628 101.06 243.696 101.447 243.696 101.892C243.696 102.321 243.627 102.701 243.488 103.032C243.35 103.363 243.146 103.623 242.876 103.812C242.61 103.999 242.279 104.092 241.884 104.092C241.49 104.092 241.158 104.001 240.888 103.82C240.619 103.639 240.415 103.384 240.276 103.056C240.14 102.725 240.072 102.34 240.072 101.9C240.072 101.465 240.142 101.083 240.28 100.752C240.419 100.421 240.623 100.164 240.892 99.98C241.164 99.7933 241.498 99.7 241.892 99.7ZM241.892 100.248C241.53 100.248 241.255 100.383 241.068 100.652C240.884 100.919 240.792 101.335 240.792 101.9C240.792 102.455 240.883 102.867 241.064 103.136C241.248 103.405 241.522 103.54 241.884 103.54C242.247 103.54 242.519 103.405 242.7 103.136C242.884 102.867 242.976 102.452 242.976 101.892C242.976 101.332 242.886 100.919 242.704 100.652C242.523 100.383 242.252 100.248 241.892 100.248ZM245.085 104V99.788H245.657L245.709 100.372C245.88 100.156 246.093 99.9907 246.349 99.876C246.608 99.7587 246.859 99.7 247.101 99.7C247.515 99.7 247.815 99.8093 248.001 100.028C248.191 100.247 248.285 100.551 248.285 100.94V104H247.613V101.436C247.613 101.148 247.597 100.916 247.565 100.74C247.533 100.561 247.467 100.432 247.365 100.352C247.264 100.269 247.107 100.228 246.893 100.228C246.728 100.228 246.572 100.264 246.425 100.336C246.281 100.408 246.152 100.499 246.037 100.608C245.925 100.715 245.832 100.823 245.757 100.932V104H245.085ZM250.042 104.824L249.498 104.584L252.922 97.524L253.458 97.788L250.042 104.824ZM257.435 99.788V103.324C257.435 103.793 257.33 104.185 257.119 104.5C256.908 104.817 256.603 105.072 256.203 105.264C255.803 105.456 255.319 105.6 254.751 105.696L254.639 105.176C255.055 105.107 255.423 105.003 255.743 104.864C256.063 104.725 256.312 104.535 256.491 104.292C256.672 104.052 256.763 103.744 256.763 103.368V100.32H255.011V99.788H257.435ZM256.807 97.816C256.956 97.816 257.076 97.8613 257.167 97.952C257.258 98.0427 257.303 98.1533 257.303 98.284C257.303 98.42 257.258 98.5347 257.167 98.628C257.076 98.7187 256.956 98.764 256.807 98.764C256.663 98.764 256.547 98.7187 256.459 98.628C256.371 98.5347 256.327 98.42 256.327 98.284C256.327 98.1533 256.371 98.0427 256.459 97.952C256.547 97.8613 256.663 97.816 256.807 97.816ZM260.908 103.536C261.231 103.536 261.485 103.476 261.672 103.356C261.861 103.233 261.956 103.071 261.956 102.868C261.956 102.74 261.932 102.629 261.884 102.536C261.839 102.443 261.744 102.359 261.6 102.284C261.456 102.209 261.235 102.135 260.936 102.06C260.645 101.988 260.392 101.905 260.176 101.812C259.963 101.716 259.796 101.592 259.676 101.44C259.559 101.288 259.5 101.091 259.5 100.848C259.5 100.611 259.567 100.407 259.7 100.236C259.836 100.063 260.024 99.9307 260.264 99.84C260.504 99.7467 260.783 99.7 261.1 99.7C261.439 99.7 261.733 99.7453 261.984 99.836C262.237 99.924 262.452 100.033 262.628 100.164L262.332 100.62C262.172 100.511 261.996 100.421 261.804 100.352C261.612 100.28 261.38 100.244 261.108 100.244C260.777 100.244 260.543 100.296 260.404 100.4C260.265 100.501 260.196 100.633 260.196 100.796C260.196 100.919 260.229 101.021 260.296 101.104C260.365 101.184 260.481 101.257 260.644 101.324C260.807 101.388 261.031 101.459 261.316 101.536C261.591 101.608 261.829 101.695 262.032 101.796C262.237 101.897 262.397 102.031 262.512 102.196C262.627 102.361 262.684 102.575 262.684 102.836C262.684 103.135 262.599 103.377 262.428 103.564C262.257 103.748 262.036 103.883 261.764 103.968C261.495 104.051 261.209 104.092 260.908 104.092C260.527 104.092 260.201 104.037 259.932 103.928C259.665 103.816 259.441 103.681 259.26 103.524L259.644 103.08C259.809 103.216 259.999 103.327 260.212 103.412C260.428 103.495 260.66 103.536 260.908 103.536ZM265.877 99.7C266.274 99.7 266.606 99.7907 266.873 99.972C267.142 100.151 267.343 100.404 267.477 100.732C267.613 101.06 267.681 101.447 267.681 101.892C267.681 102.321 267.611 102.701 267.473 103.032C267.334 103.363 267.13 103.623 266.861 103.812C266.594 103.999 266.263 104.092 265.869 104.092C265.474 104.092 265.142 104.001 264.873 103.82C264.603 103.639 264.399 103.384 264.261 103.056C264.125 102.725 264.057 102.34 264.057 101.9C264.057 101.465 264.126 101.083 264.265 100.752C264.403 100.421 264.607 100.164 264.877 99.98C265.149 99.7933 265.482 99.7 265.877 99.7ZM265.877 100.248C265.514 100.248 265.239 100.383 265.053 100.652C264.869 100.919 264.777 101.335 264.777 101.9C264.777 102.455 264.867 102.867 265.049 103.136C265.233 103.405 265.506 103.54 265.869 103.54C266.231 103.54 266.503 103.405 266.685 103.136C266.869 102.867 266.961 102.452 266.961 101.892C266.961 101.332 266.87 100.919 266.689 100.652C266.507 100.383 266.237 100.248 265.877 100.248ZM269.07 104V99.788H269.642L269.694 100.372C269.864 100.156 270.078 99.9907 270.334 99.876C270.592 99.7587 270.843 99.7 271.086 99.7C271.499 99.7 271.799 99.8093 271.986 100.028C272.175 100.247 272.27 100.551 272.27 100.94V104H271.598V101.436C271.598 101.148 271.582 100.916 271.55 100.74C271.518 100.561 271.451 100.432 271.35 100.352C271.248 100.269 271.091 100.228 270.878 100.228C270.712 100.228 270.556 100.264 270.41 100.336C270.266 100.408 270.136 100.499 270.022 100.608C269.91 100.715 269.816 100.823 269.742 100.932V104H269.07ZM275.167 100.172L275.043 98.092H275.883L275.759 100.172H275.167ZM126.463 113.172L126.339 111.092H127.179L127.055 113.172H126.463ZM132.976 116.08C132.976 116.248 133.004 116.371 133.06 116.448C133.116 116.525 133.203 116.583 133.32 116.62L133.156 117.092C132.975 117.068 132.816 117.011 132.68 116.92C132.544 116.827 132.446 116.687 132.384 116.5C132.232 116.695 132.043 116.843 131.816 116.944C131.59 117.043 131.339 117.092 131.064 117.092C130.643 117.092 130.311 116.973 130.068 116.736C129.826 116.499 129.704 116.184 129.704 115.792C129.704 115.357 129.874 115.024 130.212 114.792C130.551 114.56 131.04 114.444 131.68 114.444H132.3V114.092C132.3 113.788 132.211 113.573 132.032 113.448C131.856 113.32 131.611 113.256 131.296 113.256C131.158 113.256 130.995 113.273 130.808 113.308C130.622 113.34 130.419 113.395 130.2 113.472L130.024 112.964C130.283 112.868 130.526 112.8 130.752 112.76C130.979 112.72 131.195 112.7 131.4 112.7C131.926 112.7 132.319 112.823 132.58 113.068C132.844 113.311 132.976 113.641 132.976 114.06V116.08ZM131.236 116.58C131.444 116.58 131.643 116.528 131.832 116.424C132.022 116.317 132.178 116.171 132.3 115.984V114.9H131.692C131.228 114.9 130.9 114.98 130.708 115.14C130.519 115.3 130.424 115.515 130.424 115.784C130.424 116.045 130.491 116.244 130.624 116.38C130.76 116.513 130.964 116.58 131.236 116.58ZM135.429 112.788V115.772C135.429 116.049 135.486 116.249 135.601 116.372C135.716 116.495 135.894 116.556 136.137 116.556C136.369 116.556 136.588 116.491 136.793 116.36C137.001 116.227 137.162 116.069 137.277 115.888V112.788H137.949V117H137.377L137.321 116.432C137.156 116.645 136.952 116.809 136.709 116.924C136.466 117.036 136.221 117.092 135.973 117.092C135.565 117.092 135.26 116.984 135.057 116.768C134.857 116.549 134.757 116.244 134.757 115.852V112.788H135.429ZM142.898 116.788C142.754 116.884 142.579 116.959 142.374 117.012C142.169 117.065 141.967 117.092 141.77 117.092C141.317 117.092 140.967 116.973 140.722 116.736C140.477 116.499 140.354 116.193 140.354 115.82V113.308H139.386V112.788H140.354V111.832L141.026 111.752V112.788H142.482L142.402 113.308H141.026V115.812C141.026 116.047 141.087 116.225 141.21 116.348C141.335 116.471 141.542 116.532 141.83 116.532C141.987 116.532 142.133 116.513 142.266 116.476C142.399 116.439 142.523 116.391 142.638 116.332L142.898 116.788ZM145.023 111.028V113.364C145.188 113.143 145.391 112.977 145.631 112.868C145.874 112.756 146.119 112.7 146.367 112.7C146.778 112.7 147.078 112.809 147.267 113.028C147.456 113.247 147.551 113.551 147.551 113.94V117H146.879V113.956C146.879 113.703 146.82 113.519 146.703 113.404C146.586 113.287 146.402 113.228 146.151 113.228C145.991 113.228 145.839 113.264 145.695 113.336C145.551 113.408 145.422 113.497 145.307 113.604C145.192 113.711 145.098 113.82 145.023 113.932V117H144.351V111.1L145.023 111.028ZM150.752 112.7C151.149 112.7 151.481 112.791 151.748 112.972C152.017 113.151 152.218 113.404 152.352 113.732C152.488 114.06 152.556 114.447 152.556 114.892C152.556 115.321 152.486 115.701 152.348 116.032C152.209 116.363 152.005 116.623 151.736 116.812C151.469 116.999 151.138 117.092 150.744 117.092C150.349 117.092 150.017 117.001 149.748 116.82C149.478 116.639 149.274 116.384 149.136 116.056C149 115.725 148.932 115.34 148.932 114.9C148.932 114.465 149.001 114.083 149.14 113.752C149.278 113.421 149.482 113.164 149.752 112.98C150.024 112.793 150.357 112.7 150.752 112.7ZM150.752 113.248C150.389 113.248 150.114 113.383 149.928 113.652C149.744 113.919 149.652 114.335 149.652 114.9C149.652 115.455 149.742 115.867 149.924 116.136C150.108 116.405 150.381 116.54 150.744 116.54C151.106 116.54 151.378 116.405 151.56 116.136C151.744 115.867 151.836 115.452 151.836 114.892C151.836 114.332 151.745 113.919 151.564 113.652C151.382 113.383 151.112 113.248 150.752 113.248ZM153.985 117V116.484H154.641V113.304H153.985V112.788H155.153L155.277 113.784C155.439 113.437 155.637 113.169 155.869 112.98C156.101 112.791 156.407 112.696 156.789 112.696C156.906 112.696 157.01 112.705 157.101 112.724C157.194 112.74 157.289 112.761 157.385 112.788L157.189 113.388C157.101 113.364 157.021 113.347 156.949 113.336C156.877 113.323 156.794 113.316 156.701 113.316C156.378 113.316 156.101 113.431 155.869 113.66C155.637 113.889 155.451 114.236 155.313 114.7V116.484H156.169V117H153.985ZM156.737 114.212V113.296L156.805 112.788H157.385L157.289 114.212H156.737ZM160.874 112.788V116.468H162.062V117H158.902V116.468H160.202V113.32H158.942V112.788H160.874ZM160.338 110.816C160.487 110.816 160.606 110.861 160.694 110.952C160.784 111.043 160.83 111.153 160.83 111.284C160.83 111.42 160.784 111.535 160.694 111.628C160.606 111.719 160.487 111.764 160.338 111.764C160.196 111.764 160.08 111.719 159.99 111.628C159.899 111.535 159.854 111.42 159.854 111.284C159.854 111.153 159.899 111.043 159.99 110.952C160.08 110.861 160.196 110.816 160.338 110.816ZM164.378 116.428H166.722L166.634 117H163.554V116.492L165.89 113.372H163.738V112.788H166.698V113.308L164.378 116.428ZM171.351 116.08C171.351 116.248 171.379 116.371 171.435 116.448C171.491 116.525 171.578 116.583 171.695 116.62L171.531 117.092C171.35 117.068 171.191 117.011 171.055 116.92C170.919 116.827 170.821 116.687 170.759 116.5C170.607 116.695 170.418 116.843 170.191 116.944C169.965 117.043 169.714 117.092 169.439 117.092C169.018 117.092 168.686 116.973 168.443 116.736C168.201 116.499 168.079 116.184 168.079 115.792C168.079 115.357 168.249 115.024 168.587 114.792C168.926 114.56 169.415 114.444 170.055 114.444H170.675V114.092C170.675 113.788 170.586 113.573 170.407 113.448C170.231 113.32 169.986 113.256 169.671 113.256C169.533 113.256 169.37 113.273 169.183 113.308C168.997 113.34 168.794 113.395 168.575 113.472L168.399 112.964C168.658 112.868 168.901 112.8 169.127 112.76C169.354 112.72 169.57 112.7 169.775 112.7C170.301 112.7 170.694 112.823 170.955 113.068C171.219 113.311 171.351 113.641 171.351 114.06V116.08ZM169.611 116.58C169.819 116.58 170.018 116.528 170.207 116.424C170.397 116.317 170.553 116.171 170.675 115.984V114.9H170.067C169.603 114.9 169.275 114.98 169.083 115.14C168.894 115.3 168.799 115.515 168.799 115.784C168.799 116.045 168.866 116.244 168.999 116.38C169.135 116.513 169.339 116.58 169.611 116.58ZM176.476 116.788C176.332 116.884 176.157 116.959 175.952 117.012C175.747 117.065 175.545 117.092 175.348 117.092C174.895 117.092 174.545 116.973 174.3 116.736C174.055 116.499 173.932 116.193 173.932 115.82V113.308H172.964V112.788H173.932V111.832L174.604 111.752V112.788H176.06L175.98 113.308H174.604V115.812C174.604 116.047 174.665 116.225 174.788 116.348C174.913 116.471 175.12 116.532 175.408 116.532C175.565 116.532 175.711 116.513 175.844 116.476C175.977 116.439 176.101 116.391 176.216 116.332L176.476 116.788ZM180.061 112.788V116.468H181.249V117H178.089V116.468H179.389V113.32H178.129V112.788H180.061ZM179.525 110.816C179.674 110.816 179.793 110.861 179.881 110.952C179.972 111.043 180.017 111.153 180.017 111.284C180.017 111.42 179.972 111.535 179.881 111.628C179.793 111.719 179.674 111.764 179.525 111.764C179.384 111.764 179.268 111.719 179.177 111.628C179.086 111.535 179.041 111.42 179.041 111.284C179.041 111.153 179.086 111.043 179.177 110.952C179.268 110.861 179.384 110.816 179.525 110.816ZM184.33 112.7C184.727 112.7 185.059 112.791 185.326 112.972C185.595 113.151 185.797 113.404 185.93 113.732C186.066 114.06 186.134 114.447 186.134 114.892C186.134 115.321 186.065 115.701 185.926 116.032C185.787 116.363 185.583 116.623 185.314 116.812C185.047 116.999 184.717 117.092 184.322 117.092C183.927 117.092 183.595 117.001 183.326 116.82C183.057 116.639 182.853 116.384 182.714 116.056C182.578 115.725 182.51 115.34 182.51 114.9C182.51 114.465 182.579 114.083 182.718 113.752C182.857 113.421 183.061 113.164 183.33 112.98C183.602 112.793 183.935 112.7 184.33 112.7ZM184.33 113.248C183.967 113.248 183.693 113.383 183.506 113.652C183.322 113.919 183.23 114.335 183.23 114.9C183.23 115.455 183.321 115.867 183.502 116.136C183.686 116.405 183.959 116.54 184.322 116.54C184.685 116.54 184.957 116.405 185.138 116.136C185.322 115.867 185.414 115.452 185.414 114.892C185.414 114.332 185.323 113.919 185.142 113.652C184.961 113.383 184.69 113.248 184.33 113.248ZM187.523 117V112.788H188.095L188.147 113.372C188.317 113.156 188.531 112.991 188.787 112.876C189.045 112.759 189.296 112.7 189.539 112.7C189.952 112.7 190.252 112.809 190.439 113.028C190.628 113.247 190.723 113.551 190.723 113.94V117H190.051V114.436C190.051 114.148 190.035 113.916 190.003 113.74C189.971 113.561 189.904 113.432 189.803 113.352C189.701 113.269 189.544 113.228 189.331 113.228C189.165 113.228 189.009 113.264 188.863 113.336C188.719 113.408 188.589 113.499 188.475 113.608C188.363 113.715 188.269 113.823 188.195 113.932V117H187.523ZM193.264 116.44C193.264 116.267 193.325 116.116 193.448 115.988C193.573 115.86 193.726 115.796 193.908 115.796C194.094 115.796 194.249 115.86 194.372 115.988C194.497 116.116 194.56 116.267 194.56 116.44C194.56 116.621 194.497 116.776 194.372 116.904C194.249 117.029 194.094 117.092 193.908 117.092C193.726 117.092 193.573 117.029 193.448 116.904C193.325 116.776 193.264 116.621 193.264 116.44ZM193.264 113.556C193.264 113.433 193.292 113.324 193.348 113.228C193.404 113.132 193.481 113.056 193.58 113C193.678 112.941 193.788 112.912 193.908 112.912C194.094 112.912 194.249 112.975 194.372 113.1C194.497 113.225 194.56 113.377 194.56 113.556C194.56 113.732 194.497 113.885 194.372 114.016C194.249 114.144 194.094 114.208 193.908 114.208C193.726 114.208 193.573 114.144 193.448 114.016C193.325 113.885 193.264 113.732 193.264 113.556ZM204.693 115.452C204.693 115.175 204.639 114.961 204.529 114.812C204.423 114.66 204.28 114.555 204.101 114.496C203.923 114.437 203.727 114.408 203.513 114.408H202.573V116.428H203.481C203.617 116.428 203.756 116.415 203.897 116.388C204.039 116.361 204.169 116.313 204.289 116.244C204.412 116.175 204.509 116.077 204.581 115.952C204.656 115.824 204.693 115.657 204.693 115.452ZM204.473 112.916C204.473 112.604 204.376 112.383 204.181 112.252C203.989 112.119 203.727 112.052 203.393 112.052H202.573V113.836H203.461C203.787 113.836 204.036 113.764 204.209 113.62C204.385 113.473 204.473 113.239 204.473 112.916ZM205.425 115.428C205.425 115.727 205.365 115.977 205.245 116.18C205.128 116.383 204.969 116.544 204.769 116.664C204.572 116.784 204.351 116.871 204.105 116.924C203.863 116.975 203.615 117 203.361 117H201.881V111.492H203.237C203.48 111.492 203.716 111.515 203.945 111.56C204.177 111.603 204.385 111.677 204.569 111.784C204.756 111.888 204.905 112.029 205.017 112.208C205.129 112.387 205.185 112.611 205.185 112.88C205.185 113.117 205.136 113.319 205.037 113.484C204.941 113.647 204.815 113.777 204.657 113.876C204.503 113.975 204.337 114.044 204.161 114.084C204.367 114.116 204.565 114.179 204.757 114.272C204.952 114.363 205.112 114.501 205.237 114.688C205.363 114.872 205.425 115.119 205.425 115.428ZM209.726 116.08C209.726 116.248 209.754 116.371 209.81 116.448C209.866 116.525 209.953 116.583 210.07 116.62L209.906 117.092C209.725 117.068 209.566 117.011 209.43 116.92C209.294 116.827 209.196 116.687 209.134 116.5C208.982 116.695 208.793 116.843 208.566 116.944C208.34 117.043 208.089 117.092 207.814 117.092C207.393 117.092 207.061 116.973 206.818 116.736C206.576 116.499 206.454 116.184 206.454 115.792C206.454 115.357 206.624 115.024 206.962 114.792C207.301 114.56 207.79 114.444 208.43 114.444H209.05V114.092C209.05 113.788 208.961 113.573 208.782 113.448C208.606 113.32 208.361 113.256 208.046 113.256C207.908 113.256 207.745 113.273 207.558 113.308C207.372 113.34 207.169 113.395 206.95 113.472L206.774 112.964C207.033 112.868 207.276 112.8 207.502 112.76C207.729 112.72 207.945 112.7 208.15 112.7C208.676 112.7 209.069 112.823 209.33 113.068C209.594 113.311 209.726 113.641 209.726 114.06V116.08ZM207.986 116.58C208.194 116.58 208.393 116.528 208.582 116.424C208.772 116.317 208.928 116.171 209.05 115.984V114.9H208.442C207.978 114.9 207.65 114.98 207.458 115.14C207.269 115.3 207.174 115.515 207.174 115.784C207.174 116.045 207.241 116.244 207.374 116.38C207.51 116.513 207.714 116.58 207.986 116.58ZM212.939 116.536C213.262 116.536 213.516 116.476 213.703 116.356C213.892 116.233 213.987 116.071 213.987 115.868C213.987 115.74 213.963 115.629 213.915 115.536C213.87 115.443 213.775 115.359 213.631 115.284C213.487 115.209 213.266 115.135 212.967 115.06C212.676 114.988 212.423 114.905 212.207 114.812C211.994 114.716 211.827 114.592 211.707 114.44C211.59 114.288 211.531 114.091 211.531 113.848C211.531 113.611 211.598 113.407 211.731 113.236C211.867 113.063 212.055 112.931 212.295 112.84C212.535 112.747 212.814 112.7 213.131 112.7C213.47 112.7 213.764 112.745 214.015 112.836C214.268 112.924 214.483 113.033 214.659 113.164L214.363 113.62C214.203 113.511 214.027 113.421 213.835 113.352C213.643 113.28 213.411 113.244 213.139 113.244C212.808 113.244 212.574 113.296 212.435 113.4C212.296 113.501 212.227 113.633 212.227 113.796C212.227 113.919 212.26 114.021 212.327 114.104C212.396 114.184 212.512 114.257 212.675 114.324C212.838 114.388 213.062 114.459 213.347 114.536C213.622 114.608 213.86 114.695 214.063 114.796C214.268 114.897 214.428 115.031 214.543 115.196C214.658 115.361 214.715 115.575 214.715 115.836C214.715 116.135 214.63 116.377 214.459 116.564C214.288 116.748 214.067 116.883 213.795 116.968C213.526 117.051 213.24 117.092 212.939 117.092C212.558 117.092 212.232 117.037 211.963 116.928C211.696 116.816 211.472 116.681 211.291 116.524L211.675 116.08C211.84 116.216 212.03 116.327 212.243 116.412C212.459 116.495 212.691 116.536 212.939 116.536ZM218.436 112.788V116.468H219.624V117H216.464V116.468H217.764V113.32H216.504V112.788H218.436ZM217.9 110.816C218.049 110.816 218.168 110.861 218.256 110.952C218.347 111.043 218.392 111.153 218.392 111.284C218.392 111.42 218.347 111.535 218.256 111.628C218.168 111.719 218.049 111.764 217.9 111.764C217.759 111.764 217.643 111.719 217.552 111.628C217.461 111.535 217.416 111.42 217.416 111.284C217.416 111.153 217.461 111.043 217.552 110.952C217.643 110.861 217.759 110.816 217.9 110.816ZM223.005 116.512C223.216 116.512 223.412 116.477 223.593 116.408C223.777 116.339 223.946 116.251 224.101 116.144L224.429 116.584C224.245 116.741 224.024 116.865 223.765 116.956C223.506 117.047 223.253 117.092 223.005 117.092C222.586 117.092 222.229 117.003 221.933 116.824C221.64 116.643 221.416 116.389 221.261 116.064C221.106 115.736 221.029 115.352 221.029 114.912C221.029 114.491 221.106 114.113 221.261 113.78C221.418 113.444 221.644 113.18 221.937 112.988C222.233 112.796 222.592 112.7 223.013 112.7C223.282 112.7 223.534 112.741 223.769 112.824C224.006 112.904 224.224 113.025 224.421 113.188L224.093 113.636C223.914 113.511 223.734 113.417 223.553 113.356C223.374 113.292 223.192 113.26 223.005 113.26C222.642 113.26 222.344 113.396 222.109 113.668C221.874 113.94 221.757 114.355 221.757 114.912C221.757 115.285 221.81 115.591 221.917 115.828C222.026 116.063 222.174 116.236 222.361 116.348C222.55 116.457 222.765 116.512 223.005 116.512ZM233.671 112.248L233.995 112.764L231.171 114.496L233.995 116.244L233.635 116.736L230.595 114.836V114.148L233.671 112.248ZM236.388 112.06V113.916H238.428V114.488H236.388V116.444H238.891V117H235.692V111.492H238.819L238.74 112.06H236.388ZM242.644 117L240.704 112.156C240.707 112.217 240.712 112.32 240.72 112.464C240.731 112.605 240.742 112.775 240.752 112.972C240.766 113.167 240.776 113.373 240.784 113.592C240.792 113.811 240.796 114.027 240.796 114.24V117H240.152V111.492H241.092L243.064 116.356C243.062 116.279 243.052 116.137 243.036 115.932C243.02 115.724 243.006 115.473 242.992 115.18C242.979 114.887 242.972 114.576 242.972 114.248V111.492H243.616V117H242.644ZM247.145 111.404C247.505 111.404 247.807 111.449 248.049 111.54C248.292 111.631 248.523 111.764 248.741 111.94L248.353 112.392C248.18 112.245 247.996 112.141 247.801 112.08C247.609 112.016 247.408 111.984 247.197 111.984C246.896 111.984 246.617 112.056 246.361 112.2C246.105 112.341 245.899 112.577 245.741 112.908C245.587 113.236 245.509 113.681 245.509 114.244C245.509 114.791 245.583 115.229 245.729 115.56C245.879 115.891 246.08 116.129 246.333 116.276C246.587 116.423 246.869 116.496 247.181 116.496C247.491 116.496 247.744 116.449 247.941 116.356C248.141 116.263 248.315 116.156 248.461 116.036L248.821 116.492C248.653 116.655 248.435 116.796 248.165 116.916C247.896 117.033 247.565 117.092 247.173 117.092C246.728 117.092 246.324 116.983 245.961 116.764C245.601 116.545 245.316 116.225 245.105 115.804C244.895 115.38 244.789 114.86 244.789 114.244C244.789 113.625 244.896 113.105 245.109 112.684C245.325 112.263 245.612 111.944 245.969 111.728C246.329 111.512 246.721 111.404 247.145 111.404ZM253.506 114.252C253.506 114.807 253.43 115.299 253.278 115.728C253.129 116.155 252.903 116.489 252.602 116.732C252.301 116.972 251.926 117.092 251.478 117.092C251.033 117.092 250.658 116.975 250.354 116.74C250.053 116.503 249.826 116.172 249.674 115.748C249.525 115.324 249.45 114.828 249.45 114.26C249.45 113.703 249.525 113.209 249.674 112.78C249.826 112.351 250.053 112.015 250.354 111.772C250.658 111.527 251.033 111.404 251.478 111.404C251.926 111.404 252.301 111.523 252.602 111.76C252.903 111.997 253.129 112.329 253.278 112.756C253.43 113.183 253.506 113.681 253.506 114.252ZM252.778 114.252C252.778 113.519 252.677 112.957 252.474 112.568C252.274 112.179 251.942 111.984 251.478 111.984C251.014 111.984 250.681 112.18 250.478 112.572C250.278 112.964 250.178 113.527 250.178 114.26C250.178 114.993 250.282 115.552 250.49 115.936C250.698 116.317 251.027 116.508 251.478 116.508C251.942 116.508 252.274 116.316 252.474 115.932C252.677 115.545 252.778 114.985 252.778 114.252ZM257.555 114.22C257.555 113.74 257.504 113.356 257.403 113.068C257.302 112.78 257.168 112.564 257.003 112.42C256.838 112.276 256.656 112.18 256.459 112.132C256.264 112.084 256.072 112.06 255.883 112.06H255.235V116.444H255.891C256.088 116.444 256.284 116.413 256.479 116.352C256.676 116.288 256.856 116.176 257.019 116.016C257.182 115.853 257.311 115.628 257.407 115.34C257.506 115.049 257.555 114.676 257.555 114.22ZM258.295 114.22C258.295 114.679 258.246 115.071 258.147 115.396C258.051 115.719 257.919 115.985 257.751 116.196C257.583 116.407 257.391 116.571 257.175 116.688C256.962 116.803 256.736 116.884 256.499 116.932C256.264 116.977 256.034 117 255.807 117H254.543V111.492H255.719C256.042 111.492 256.355 111.528 256.659 111.6C256.966 111.672 257.242 111.805 257.487 112C257.735 112.192 257.931 112.467 258.075 112.824C258.222 113.181 258.295 113.647 258.295 114.22ZM260.372 112.06V113.916H262.412V114.488H260.372V116.444H262.876V117H259.676V111.492H262.804L262.724 112.06H260.372ZM267.149 114.22C267.149 113.74 267.098 113.356 266.997 113.068C266.895 112.78 266.762 112.564 266.597 112.42C266.431 112.276 266.25 112.18 266.053 112.132C265.858 112.084 265.666 112.06 265.477 112.06H264.829V116.444H265.485C265.682 116.444 265.878 116.413 266.073 116.352C266.27 116.288 266.45 116.176 266.613 116.016C266.775 115.853 266.905 115.628 267.001 115.34C267.099 115.049 267.149 114.676 267.149 114.22ZM267.889 114.22C267.889 114.679 267.839 115.071 267.741 115.396C267.645 115.719 267.513 115.985 267.345 116.196C267.177 116.407 266.985 116.571 266.769 116.688C266.555 116.803 266.33 116.884 266.093 116.932C265.858 116.977 265.627 117 265.401 117H264.137V111.492H265.313C265.635 111.492 265.949 111.528 266.253 111.6C266.559 111.672 266.835 111.805 267.081 112C267.329 112.192 267.525 112.467 267.669 112.824C267.815 113.181 267.889 113.647 267.889 114.22ZM268.666 118.452V117.864H272.666V118.452H268.666ZM277.355 115.476C277.355 115.791 277.276 116.071 277.119 116.316C276.961 116.559 276.733 116.749 276.435 116.888C276.136 117.024 275.772 117.092 275.343 117.092C274.94 117.092 274.575 117.031 274.247 116.908C273.921 116.785 273.643 116.612 273.411 116.388L273.823 115.924C274.015 116.103 274.235 116.245 274.483 116.352C274.731 116.456 275.021 116.508 275.355 116.508C275.579 116.508 275.788 116.472 275.983 116.4C276.177 116.325 276.335 116.213 276.455 116.064C276.575 115.912 276.635 115.72 276.635 115.488C276.635 115.309 276.6 115.157 276.531 115.032C276.461 114.907 276.339 114.796 276.163 114.7C275.987 114.601 275.741 114.505 275.427 114.412C275.064 114.305 274.749 114.185 274.483 114.052C274.219 113.916 274.013 113.749 273.867 113.552C273.723 113.355 273.65 113.111 273.65 112.82C273.65 112.545 273.727 112.301 273.879 112.088C274.031 111.875 274.24 111.708 274.507 111.588C274.776 111.465 275.085 111.404 275.435 111.404C275.816 111.404 276.147 111.459 276.427 111.568C276.709 111.675 276.965 111.829 277.194 112.032L276.787 112.484C276.589 112.308 276.377 112.181 276.151 112.104C275.924 112.024 275.693 111.984 275.459 111.984C275.259 111.984 275.075 112.015 274.907 112.076C274.741 112.135 274.608 112.224 274.507 112.344C274.408 112.461 274.359 112.612 274.359 112.796C274.359 112.953 274.401 113.089 274.487 113.204C274.572 113.319 274.716 113.424 274.919 113.52C275.121 113.613 275.397 113.712 275.747 113.816C276.032 113.899 276.296 114.003 276.539 114.128C276.784 114.251 276.981 114.419 277.131 114.632C277.28 114.843 277.355 115.124 277.355 115.476ZM280.591 112.088V117H279.899V112.088H278.179V111.492H282.335L282.263 112.088H280.591ZM286.956 113.036C286.956 113.311 286.896 113.551 286.776 113.756C286.659 113.961 286.499 114.131 286.296 114.264C286.094 114.397 285.866 114.495 285.612 114.556L287.244 117H286.412L284.908 114.636H284.164V117H283.468V111.492H284.884C285.564 111.492 286.079 111.623 286.428 111.884C286.78 112.143 286.956 112.527 286.956 113.036ZM286.212 113.036C286.212 112.681 286.111 112.428 285.908 112.276C285.706 112.121 285.391 112.044 284.964 112.044H284.164V114.092H284.964C285.359 114.092 285.666 114.012 285.884 113.852C286.103 113.689 286.212 113.417 286.212 113.036ZM291.429 111.492V112.048H290.205V116.444H291.429V117H288.277V116.444H289.501V112.048H288.277V111.492H291.429ZM295.41 117L293.47 112.156C293.473 112.217 293.478 112.32 293.486 112.464C293.497 112.605 293.507 112.775 293.518 112.972C293.531 113.167 293.542 113.373 293.55 113.592C293.558 113.811 293.562 114.027 293.562 114.24V117H292.918V111.492H293.858L295.83 116.356C295.827 116.279 295.818 116.137 295.802 115.932C295.786 115.724 295.771 115.473 295.758 115.18C295.745 114.887 295.738 114.576 295.738 114.248V111.492H296.382V117H295.41ZM299.555 117.092C299.12 117.092 298.742 116.987 298.419 116.776C298.099 116.565 297.851 116.249 297.675 115.828C297.499 115.407 297.411 114.879 297.411 114.244C297.411 113.769 297.474 113.355 297.599 113C297.727 112.645 297.899 112.349 298.115 112.112C298.334 111.875 298.58 111.697 298.855 111.58C299.132 111.463 299.419 111.404 299.715 111.404C300.075 111.404 300.374 111.456 300.611 111.56C300.848 111.661 301.075 111.811 301.291 112.008L300.871 112.444C300.703 112.287 300.526 112.171 300.339 112.096C300.155 112.021 299.948 111.984 299.719 111.984C299.519 111.984 299.326 112.023 299.139 112.1C298.952 112.177 298.784 112.304 298.635 112.48C298.488 112.653 298.371 112.884 298.283 113.172C298.198 113.46 298.155 113.817 298.155 114.244C298.155 114.775 298.21 115.207 298.319 115.54C298.431 115.873 298.595 116.119 298.811 116.276C299.03 116.431 299.299 116.508 299.619 116.508C299.811 116.508 299.992 116.485 300.163 116.44C300.336 116.395 300.504 116.329 300.667 116.244V114.564H299.583L299.499 113.988H301.355V116.612C301.107 116.745 300.843 116.859 300.563 116.952C300.283 117.045 299.947 117.092 299.555 117.092ZM302.872 112.248L305.948 114.148V114.836L302.912 116.736L302.548 116.24L305.372 114.496L302.548 112.756L302.872 112.248ZM308.745 113.172L308.621 111.092H309.461L309.337 113.172H308.745Z" fill="#ABDDFF"/>
<path d="M91.1293 62.788V62.204H94.1733V62.788H91.1293ZM87.3892 62.788V62.204H90.4332V62.788H87.3892ZM96.4221 65V64.484H97.0781V61.304H96.4221V60.788H97.5901L97.7141 61.784C97.8768 61.4373 98.0741 61.1693 98.3061 60.98C98.5381 60.7907 98.8448 60.696 99.2261 60.696C99.3435 60.696 99.4475 60.7053 99.5381 60.724C99.6315 60.74 99.7261 60.7613 99.8221 60.788L99.6261 61.388C99.5381 61.364 99.4581 61.3467 99.3861 61.336C99.3141 61.3227 99.2315 61.316 99.1381 61.316C98.8155 61.316 98.5381 61.4307 98.3061 61.66C98.0741 61.8893 97.8888 62.236 97.7501 62.7V64.484H98.6061V65H96.4221ZM99.1741 62.212V61.296L99.2421 60.788H99.8221L99.7261 62.212H99.1741ZM101.707 63.132C101.72 63.4573 101.783 63.724 101.895 63.932C102.007 64.1373 102.155 64.2893 102.339 64.388C102.523 64.484 102.723 64.532 102.939 64.532C103.155 64.532 103.35 64.5 103.523 64.436C103.699 64.372 103.879 64.2773 104.063 64.152L104.379 64.596C104.182 64.7507 103.956 64.872 103.703 64.96C103.452 65.048 103.195 65.092 102.931 65.092C102.523 65.092 102.175 65 101.887 64.816C101.599 64.632 101.379 64.376 101.227 64.048C101.078 63.7173 101.003 63.3347 101.003 62.9C101.003 62.4733 101.079 62.0947 101.231 61.764C101.383 61.4333 101.596 61.1733 101.871 60.984C102.146 60.7947 102.47 60.7 102.843 60.7C103.198 60.7 103.503 60.784 103.759 60.952C104.015 61.1173 104.211 61.3547 104.347 61.664C104.486 61.9707 104.555 62.3373 104.555 62.764C104.555 62.836 104.554 62.904 104.551 62.968C104.548 63.0293 104.544 63.084 104.539 63.132H101.707ZM102.851 61.252C102.539 61.252 102.278 61.3627 102.067 61.584C101.859 61.8053 101.74 62.148 101.711 62.612H103.907C103.899 62.1613 103.8 61.8227 103.611 61.596C103.422 61.3667 103.168 61.252 102.851 61.252ZM107.364 60.7C107.617 60.7 107.84 60.7467 108.032 60.84C108.227 60.9333 108.396 61.0693 108.54 61.248L108.596 60.788H109.168V66.696L108.496 66.612V64.468C108.344 64.684 108.165 64.8427 107.96 64.944C107.757 65.0427 107.541 65.092 107.312 65.092C106.936 65.092 106.633 65.0013 106.404 64.82C106.177 64.6387 106.013 64.384 105.912 64.056C105.811 63.7253 105.76 63.34 105.76 62.9C105.76 62.4787 105.82 62.1027 105.94 61.772C106.063 61.4387 106.244 61.1773 106.484 60.988C106.724 60.796 107.017 60.7 107.364 60.7ZM107.532 61.24C107.183 61.24 106.92 61.3773 106.744 61.652C106.568 61.9267 106.48 62.3427 106.48 62.9C106.48 63.2627 106.516 63.5653 106.588 63.808C106.66 64.0507 106.767 64.232 106.908 64.352C107.052 64.472 107.233 64.532 107.452 64.532C107.687 64.532 107.891 64.4667 108.064 64.336C108.237 64.2053 108.381 64.0547 108.496 63.884V61.78C108.387 61.6093 108.248 61.4773 108.08 61.384C107.915 61.288 107.732 61.24 107.532 61.24ZM111.445 60.788V63.772C111.445 64.0493 111.502 64.2493 111.617 64.372C111.731 64.4947 111.91 64.556 112.153 64.556C112.385 64.556 112.603 64.4907 112.809 64.36C113.017 64.2267 113.178 64.0693 113.293 63.888V60.788H113.965V65H113.393L113.337 64.432C113.171 64.6453 112.967 64.8093 112.725 64.924C112.482 65.036 112.237 65.092 111.989 65.092C111.581 65.092 111.275 64.984 111.073 64.768C110.873 64.5493 110.773 64.244 110.773 63.852V60.788H111.445ZM116.098 63.132C116.111 63.4573 116.174 63.724 116.286 63.932C116.398 64.1373 116.546 64.2893 116.73 64.388C116.914 64.484 117.114 64.532 117.33 64.532C117.546 64.532 117.74 64.5 117.914 64.436C118.09 64.372 118.27 64.2773 118.454 64.152L118.77 64.596C118.572 64.7507 118.347 64.872 118.094 64.96C117.843 65.048 117.586 65.092 117.322 65.092C116.914 65.092 116.566 65 116.278 64.816C115.99 64.632 115.77 64.376 115.618 64.048C115.468 63.7173 115.394 63.3347 115.394 62.9C115.394 62.4733 115.47 62.0947 115.622 61.764C115.774 61.4333 115.987 61.1733 116.262 60.984C116.536 60.7947 116.86 60.7 117.234 60.7C117.588 60.7 117.894 60.784 118.15 60.952C118.406 61.1173 118.602 61.3547 118.738 61.664C118.876 61.9707 118.946 62.3373 118.946 62.764C118.946 62.836 118.944 62.904 118.942 62.968C118.939 63.0293 118.935 63.084 118.93 63.132H116.098ZM117.242 61.252C116.93 61.252 116.668 61.3627 116.458 61.584C116.25 61.8053 116.131 62.148 116.102 62.612H118.298C118.29 62.1613 118.191 61.8227 118.002 61.596C117.812 61.3667 117.559 61.252 117.242 61.252ZM121.799 64.536C122.121 64.536 122.376 64.476 122.563 64.356C122.752 64.2333 122.847 64.0707 122.847 63.868C122.847 63.74 122.823 63.6293 122.775 63.536C122.729 63.4427 122.635 63.3587 122.491 63.284C122.347 63.2093 122.125 63.1347 121.827 63.06C121.536 62.988 121.283 62.9053 121.067 62.812C120.853 62.716 120.687 62.592 120.567 62.44C120.449 62.288 120.391 62.0907 120.391 61.848C120.391 61.6107 120.457 61.4067 120.59 61.236C120.727 61.0627 120.915 60.9307 121.155 60.84C121.395 60.7467 121.673 60.7 121.991 60.7C122.329 60.7 122.624 60.7453 122.875 60.836C123.128 60.924 123.343 61.0333 123.519 61.164L123.223 61.62C123.063 61.5107 122.887 61.4213 122.695 61.352C122.503 61.28 122.271 61.244 121.999 61.244C121.668 61.244 121.433 61.296 121.295 61.4C121.156 61.5013 121.087 61.6333 121.087 61.796C121.087 61.9187 121.12 62.0213 121.187 62.104C121.256 62.184 121.372 62.2573 121.535 62.324C121.697 62.388 121.921 62.4587 122.207 62.536C122.481 62.608 122.72 62.6947 122.923 62.796C123.128 62.8973 123.288 63.0307 123.403 63.196C123.517 63.3613 123.575 63.5747 123.575 63.836C123.575 64.1347 123.489 64.3773 123.319 64.564C123.148 64.748 122.927 64.8827 122.655 64.968C122.385 65.0507 122.1 65.092 121.799 65.092C121.417 65.092 121.092 65.0373 120.823 64.928C120.556 64.816 120.332 64.6813 120.15 64.524L120.535 64.08C120.7 64.216 120.889 64.3267 121.103 64.412C121.319 64.4947 121.551 64.536 121.799 64.536ZM128.507 64.788C128.363 64.884 128.189 64.9587 127.983 65.012C127.778 65.0653 127.577 65.092 127.379 65.092C126.926 65.092 126.577 64.9733 126.331 64.736C126.086 64.4987 125.963 64.1933 125.963 63.82V61.308H124.995V60.788H125.963V59.832L126.635 59.752V60.788H128.091L128.011 61.308H126.635V63.812C126.635 64.0467 126.697 64.2253 126.819 64.348C126.945 64.4707 127.151 64.532 127.439 64.532C127.597 64.532 127.742 64.5133 127.875 64.476C128.009 64.4387 128.133 64.3907 128.247 64.332L128.507 64.788ZM137.733 60.248L138.057 60.764L135.233 62.496L138.057 64.244L137.697 64.736L134.657 62.836V62.148L137.733 60.248ZM142.994 59.492L143.306 65H142.638L142.466 62.124C142.458 61.9293 142.45 61.732 142.442 61.532C142.434 61.332 142.429 61.14 142.426 60.956C142.423 60.772 142.422 60.608 142.422 60.464C142.422 60.32 142.422 60.208 142.422 60.128L141.494 64.012H140.798L139.802 60.128C139.805 60.2053 139.807 60.32 139.81 60.472C139.813 60.6213 139.814 60.7907 139.814 60.98C139.817 61.1693 139.815 61.364 139.81 61.564C139.807 61.7613 139.802 61.9453 139.794 62.116L139.646 65H138.994L139.306 59.492H140.274L141.166 63.264L142.018 59.492H142.994ZM144.879 63.132C144.892 63.4573 144.955 63.724 145.067 63.932C145.179 64.1373 145.327 64.2893 145.511 64.388C145.695 64.484 145.895 64.532 146.111 64.532C146.327 64.532 146.522 64.5 146.695 64.436C146.871 64.372 147.051 64.2773 147.235 64.152L147.551 64.596C147.354 64.7507 147.128 64.872 146.875 64.96C146.624 65.048 146.367 65.092 146.103 65.092C145.695 65.092 145.347 65 145.059 64.816C144.771 64.632 144.551 64.376 144.399 64.048C144.25 63.7173 144.175 63.3347 144.175 62.9C144.175 62.4733 144.251 62.0947 144.403 61.764C144.555 61.4333 144.768 61.1733 145.043 60.984C145.318 60.7947 145.642 60.7 146.015 60.7C146.37 60.7 146.675 60.784 146.931 60.952C147.187 61.1173 147.383 61.3547 147.519 61.664C147.658 61.9707 147.727 62.3373 147.727 62.764C147.727 62.836 147.726 62.904 147.723 62.968C147.72 63.0293 147.716 63.084 147.711 63.132H144.879ZM146.023 61.252C145.711 61.252 145.45 61.3627 145.239 61.584C145.031 61.8053 144.912 62.148 144.883 62.612H147.079C147.071 62.1613 146.972 61.8227 146.783 61.596C146.594 61.3667 146.34 61.252 146.023 61.252ZM152.492 64.788C152.348 64.884 152.173 64.9587 151.968 65.012C151.762 65.0653 151.561 65.092 151.364 65.092C150.91 65.092 150.561 64.9733 150.316 64.736C150.07 64.4987 149.948 64.1933 149.948 63.82V61.308H148.98V60.788H149.948V59.832L150.62 59.752V60.788H152.076L151.996 61.308H150.62V63.812C150.62 64.0467 150.681 64.2253 150.804 64.348C150.929 64.4707 151.136 64.532 151.424 64.532C151.581 64.532 151.726 64.5133 151.86 64.476C151.993 64.4387 152.117 64.3907 152.232 64.332L152.492 64.788ZM154.617 59.028V61.364C154.782 61.1427 154.985 60.9773 155.225 60.868C155.467 60.756 155.713 60.7 155.961 60.7C156.371 60.7 156.671 60.8093 156.861 61.028C157.05 61.2467 157.145 61.5507 157.145 61.94V65H156.473V61.956C156.473 61.7027 156.414 61.5187 156.297 61.404C156.179 61.2867 155.995 61.228 155.745 61.228C155.585 61.228 155.433 61.264 155.289 61.336C155.145 61.408 155.015 61.4973 154.901 61.604C154.786 61.7107 154.691 61.82 154.617 61.932V65H153.945V59.1L154.617 59.028ZM160.346 60.7C160.743 60.7 161.075 60.7907 161.342 60.972C161.611 61.1507 161.812 61.404 161.946 61.732C162.082 62.06 162.15 62.4467 162.15 62.892C162.15 63.3213 162.08 63.7013 161.942 64.032C161.803 64.3627 161.599 64.6227 161.33 64.812C161.063 64.9987 160.732 65.092 160.338 65.092C159.943 65.092 159.611 65.0013 159.342 64.82C159.072 64.6387 158.868 64.384 158.73 64.056C158.594 63.7253 158.525 63.34 158.525 62.9C158.525 62.4653 158.595 62.0827 158.734 61.752C158.872 61.4213 159.076 61.164 159.346 60.98C159.618 60.7933 159.951 60.7 160.346 60.7ZM160.346 61.248C159.983 61.248 159.708 61.3827 159.522 61.652C159.338 61.9187 159.246 62.3347 159.246 62.9C159.246 63.4547 159.336 63.8667 159.518 64.136C159.702 64.4053 159.975 64.54 160.338 64.54C160.7 64.54 160.972 64.4053 161.154 64.136C161.338 63.8667 161.43 63.452 161.43 62.892C161.43 62.332 161.339 61.9187 161.158 61.652C160.976 61.3827 160.706 61.248 160.346 61.248ZM166.058 59.008L166.73 59.092V65H166.142L166.078 64.444C165.921 64.668 165.74 64.832 165.534 64.936C165.332 65.04 165.114 65.092 164.882 65.092C164.517 65.092 164.216 65 163.978 64.816C163.741 64.632 163.565 64.376 163.45 64.048C163.336 63.7173 163.278 63.3347 163.278 62.9C163.278 62.4787 163.344 62.1027 163.474 61.772C163.605 61.4387 163.793 61.1773 164.038 60.988C164.286 60.796 164.584 60.7 164.93 60.7C165.173 60.7 165.386 60.7427 165.57 60.828C165.754 60.9107 165.917 61.0333 166.058 61.196V59.008ZM165.106 61.24C164.754 61.24 164.484 61.3773 164.294 61.652C164.105 61.9267 164.01 62.3427 164.01 62.9C164.01 63.2627 164.049 63.5667 164.126 63.812C164.204 64.0573 164.317 64.2413 164.466 64.364C164.618 64.4867 164.804 64.548 165.022 64.548C165.262 64.548 165.466 64.48 165.634 64.344C165.805 64.208 165.946 64.0547 166.058 63.884V61.78C165.944 61.6093 165.805 61.4773 165.642 61.384C165.48 61.288 165.301 61.24 165.106 61.24ZM168.559 60.248L171.635 62.148V62.836L168.599 64.736L168.235 64.24L171.059 62.496L168.235 60.756L168.559 60.248ZM177.545 58.788L178.081 58.524L181.505 65.584L180.961 65.824L177.545 58.788ZM86.3324 75.788V75.204H89.3764V75.788H86.3324ZM82.5924 75.788V75.204H85.6364V75.788H82.5924ZM92.2573 73.788V76.772C92.2573 77.0493 92.3146 77.2493 92.4293 77.372C92.5439 77.4947 92.7226 77.556 92.9653 77.556C93.1973 77.556 93.4159 77.4907 93.6213 77.36C93.8293 77.2267 93.9906 77.0693 94.1053 76.888V73.788H94.7773V78H94.2053L94.1493 77.432C93.9839 77.6453 93.7799 77.8093 93.5373 77.924C93.2946 78.036 93.0493 78.092 92.8012 78.092C92.3933 78.092 92.0879 77.984 91.8853 77.768C91.6853 77.5493 91.5853 77.244 91.5853 76.852V73.788H92.2573ZM96.4221 78V77.484H97.0781V74.304H96.4221V73.788H97.5901L97.7141 74.784C97.8768 74.4373 98.0741 74.1693 98.3061 73.98C98.5381 73.7907 98.8448 73.696 99.2261 73.696C99.3435 73.696 99.4475 73.7053 99.5381 73.724C99.6315 73.74 99.7261 73.7613 99.8221 73.788L99.6261 74.388C99.5381 74.364 99.4581 74.3467 99.3861 74.336C99.3141 74.3227 99.2315 74.316 99.1381 74.316C98.8155 74.316 98.5381 74.4307 98.3061 74.66C98.0741 74.8893 97.8888 75.236 97.7501 75.7V77.484H98.6061V78H96.4221ZM99.1741 75.212V74.296L99.2421 73.788H99.8221L99.7261 75.212H99.1741ZM102.819 72.092V76.96C102.819 77.168 102.883 77.316 103.011 77.404C103.142 77.4893 103.31 77.532 103.515 77.532C103.643 77.532 103.764 77.5187 103.879 77.492C103.994 77.4653 104.108 77.4293 104.223 77.384L104.403 77.876C104.288 77.932 104.146 77.9813 103.975 78.024C103.807 78.0693 103.616 78.092 103.403 78.092C103.03 78.092 102.727 77.9893 102.495 77.784C102.263 77.576 102.147 77.2893 102.147 76.924V72.624H100.855V72.092H102.819ZM113.749 73.248L114.073 73.764L111.249 75.496L114.073 77.244L113.713 77.736L110.673 75.836V75.148L113.749 73.248ZM118.986 72.492V76.216C118.986 76.5867 118.91 76.9133 118.758 77.196C118.608 77.4787 118.396 77.6987 118.122 77.856C117.85 78.0133 117.528 78.092 117.158 78.092C116.779 78.092 116.454 78.0133 116.182 77.856C115.912 77.696 115.706 77.4747 115.562 77.192C115.418 76.9093 115.346 76.584 115.346 76.216V72.492H116.034V76.24C116.034 76.6587 116.131 76.972 116.326 77.18C116.523 77.388 116.8 77.492 117.158 77.492C117.518 77.492 117.795 77.388 117.99 77.18C118.187 76.972 118.286 76.6587 118.286 76.24V72.492H118.986ZM123.863 74.036C123.863 74.3107 123.803 74.5507 123.683 74.756C123.565 74.9613 123.405 75.1307 123.203 75.264C123 75.3973 122.772 75.4947 122.519 75.556L124.151 78H123.319L121.815 75.636H121.071V78H120.375V72.492H121.791C122.471 72.492 122.985 72.6227 123.335 72.884C123.687 73.1427 123.863 73.5267 123.863 74.036ZM123.119 74.036C123.119 73.6813 123.017 73.428 122.815 73.276C122.612 73.1213 122.297 73.044 121.871 73.044H121.071V75.092H121.871C122.265 75.092 122.572 75.012 122.791 74.852C123.009 74.6893 123.119 74.4173 123.119 74.036ZM125.443 78V72.492H126.139V77.38H128.651L128.571 78H125.443ZM130.184 73.248L133.26 75.148V75.836L130.224 77.736L129.86 77.24L132.684 75.496L129.86 73.756L130.184 73.248ZM139.17 71.788L139.706 71.524L143.13 78.584L142.586 78.824L139.17 71.788ZM86.3324 88.788V88.204H89.3764V88.788H86.3324ZM82.5924 88.788V88.204H85.6364V88.788H82.5924ZM92.2573 85.028V87.364C92.4226 87.1427 92.6253 86.9773 92.8653 86.868C93.1079 86.756 93.3533 86.7 93.6013 86.7C94.0119 86.7 94.3119 86.8093 94.5013 87.028C94.6906 87.2467 94.7853 87.5507 94.7853 87.94V91H94.1133V87.956C94.1133 87.7027 94.0546 87.5187 93.9373 87.404C93.8199 87.2867 93.6359 87.228 93.3853 87.228C93.2253 87.228 93.0733 87.264 92.9293 87.336C92.7853 87.408 92.6559 87.4973 92.5413 87.604C92.4266 87.7107 92.3319 87.82 92.2573 87.932V91H91.5853V85.1L92.2573 85.028ZM96.9101 89.132C96.9235 89.4573 96.9861 89.724 97.0981 89.932C97.2101 90.1373 97.3581 90.2893 97.5421 90.388C97.7261 90.484 97.9261 90.532 98.1421 90.532C98.3581 90.532 98.5528 90.5 98.7261 90.436C98.9021 90.372 99.0821 90.2773 99.2661 90.152L99.5821 90.596C99.3848 90.7507 99.1595 90.872 98.9061 90.96C98.6555 91.048 98.3981 91.092 98.1341 91.092C97.7261 91.092 97.3781 91 97.0901 90.816C96.8021 90.632 96.5821 90.376 96.4301 90.048C96.2808 89.7173 96.2061 89.3347 96.2061 88.9C96.2061 88.4733 96.2821 88.0947 96.4341 87.764C96.5861 87.4333 96.7995 87.1733 97.0741 86.984C97.3488 86.7947 97.6728 86.7 98.0461 86.7C98.4008 86.7 98.7061 86.784 98.9621 86.952C99.2181 87.1173 99.4141 87.3547 99.5501 87.664C99.6888 87.9707 99.7581 88.3373 99.7581 88.764C99.7581 88.836 99.7568 88.904 99.7541 88.968C99.7515 89.0293 99.7475 89.084 99.7421 89.132H96.9101ZM98.0541 87.252C97.7421 87.252 97.4808 87.3627 97.2701 87.584C97.0621 87.8053 96.9435 88.148 96.9141 88.612H99.1101C99.1021 88.1613 99.0035 87.8227 98.8141 87.596C98.6248 87.3667 98.3715 87.252 98.0541 87.252ZM104.195 90.08C104.195 90.248 104.223 90.3707 104.279 90.448C104.335 90.5253 104.422 90.5827 104.539 90.62L104.375 91.092C104.194 91.068 104.035 91.0107 103.899 90.92C103.763 90.8267 103.664 90.6867 103.603 90.5C103.451 90.6947 103.262 90.8427 103.035 90.944C102.808 91.0427 102.558 91.092 102.283 91.092C101.862 91.092 101.53 90.9733 101.287 90.736C101.044 90.4987 100.923 90.184 100.923 89.792C100.923 89.3573 101.092 89.024 101.431 88.792C101.77 88.56 102.259 88.444 102.899 88.444H103.519V88.092C103.519 87.788 103.43 87.5733 103.251 87.448C103.075 87.32 102.83 87.256 102.515 87.256C102.376 87.256 102.214 87.2733 102.027 87.308C101.84 87.34 101.638 87.3947 101.419 87.472L101.243 86.964C101.502 86.868 101.744 86.8 101.971 86.76C102.198 86.72 102.414 86.7 102.619 86.7C103.144 86.7 103.538 86.8227 103.799 87.068C104.063 87.3107 104.195 87.6413 104.195 88.06V90.08ZM102.455 90.58C102.663 90.58 102.862 90.528 103.051 90.424C103.24 90.3173 103.396 90.1707 103.519 89.984V88.9H102.911C102.447 88.9 102.119 88.98 101.927 89.14C101.738 89.3 101.643 89.5147 101.643 89.784C101.643 90.0453 101.71 90.244 101.843 90.38C101.979 90.5133 102.183 90.58 102.455 90.58ZM108.496 85.008L109.168 85.092V91H108.58L108.516 90.444C108.359 90.668 108.177 90.832 107.972 90.936C107.769 91.04 107.552 91.092 107.32 91.092C106.955 91.092 106.653 91 106.416 90.816C106.179 90.632 106.003 90.376 105.888 90.048C105.773 89.7173 105.716 89.3347 105.716 88.9C105.716 88.4787 105.781 88.1027 105.912 87.772C106.043 87.4387 106.231 87.1773 106.476 86.988C106.724 86.796 107.021 86.7 107.368 86.7C107.611 86.7 107.824 86.7427 108.008 86.828C108.192 86.9107 108.355 87.0333 108.496 87.196V85.008ZM107.544 87.24C107.192 87.24 106.921 87.3773 106.732 87.652C106.543 87.9267 106.448 88.3427 106.448 88.9C106.448 89.2627 106.487 89.5667 106.564 89.812C106.641 90.0573 106.755 90.2413 106.904 90.364C107.056 90.4867 107.241 90.548 107.46 90.548C107.7 90.548 107.904 90.48 108.072 90.344C108.243 90.208 108.384 90.0547 108.496 89.884V87.78C108.381 87.6093 108.243 87.4773 108.08 87.384C107.917 87.288 107.739 87.24 107.544 87.24ZM111.301 89.132C111.314 89.4573 111.377 89.724 111.489 89.932C111.601 90.1373 111.749 90.2893 111.933 90.388C112.117 90.484 112.317 90.532 112.533 90.532C112.749 90.532 112.943 90.5 113.117 90.436C113.293 90.372 113.473 90.2773 113.657 90.152L113.973 90.596C113.775 90.7507 113.55 90.872 113.297 90.96C113.046 91.048 112.789 91.092 112.525 91.092C112.117 91.092 111.769 91 111.481 90.816C111.193 90.632 110.973 90.376 110.821 90.048C110.671 89.7173 110.597 89.3347 110.597 88.9C110.597 88.4733 110.673 88.0947 110.825 87.764C110.977 87.4333 111.19 87.1733 111.465 86.984C111.739 86.7947 112.063 86.7 112.437 86.7C112.791 86.7 113.097 86.784 113.353 86.952C113.609 87.1173 113.805 87.3547 113.941 87.664C114.079 87.9707 114.149 88.3373 114.149 88.764C114.149 88.836 114.147 88.904 114.145 88.968C114.142 89.0293 114.138 89.084 114.133 89.132H111.301ZM112.445 87.252C112.133 87.252 111.871 87.3627 111.661 87.584C111.453 87.8053 111.334 88.148 111.305 88.612H113.501C113.493 88.1613 113.394 87.8227 113.205 87.596C113.015 87.3667 112.762 87.252 112.445 87.252ZM115.61 91V90.484H116.266V87.304H115.61V86.788H116.778L116.902 87.784C117.064 87.4373 117.262 87.1693 117.494 86.98C117.726 86.7907 118.032 86.696 118.414 86.696C118.531 86.696 118.635 86.7053 118.726 86.724C118.819 86.74 118.914 86.7613 119.01 86.788L118.814 87.388C118.726 87.364 118.646 87.3467 118.574 87.336C118.502 87.3227 118.419 87.316 118.326 87.316C118.003 87.316 117.726 87.4307 117.494 87.66C117.262 87.8893 117.076 88.236 116.938 88.7V90.484H117.794V91H115.61ZM118.362 88.212V87.296L118.43 86.788H119.01L118.914 88.212H118.362ZM246.385 87.172L246.261 85.092H247.101L246.977 87.172H246.385ZM254.295 84.788L254.831 84.524L258.255 91.584L257.711 91.824L254.295 84.788ZM86.3324 101.788V101.204H89.3764V101.788H86.3324ZM82.5924 101.788V101.204H85.6364V101.788H82.5924ZM92.2573 98.028V100.364C92.4226 100.143 92.6253 99.9773 92.8653 99.868C93.1079 99.756 93.3533 99.7 93.6013 99.7C94.0119 99.7 94.3119 99.8093 94.5013 100.028C94.6906 100.247 94.7853 100.551 94.7853 100.94V104H94.1133V100.956C94.1133 100.703 94.0546 100.519 93.9373 100.404C93.8199 100.287 93.6359 100.228 93.3853 100.228C93.2253 100.228 93.0733 100.264 92.9293 100.336C92.7853 100.408 92.6559 100.497 92.5413 100.604C92.4266 100.711 92.3319 100.82 92.2573 100.932V104H91.5853V98.1L92.2573 98.028ZM96.9101 102.132C96.9235 102.457 96.9861 102.724 97.0981 102.932C97.2101 103.137 97.3581 103.289 97.5421 103.388C97.7261 103.484 97.9261 103.532 98.1421 103.532C98.3581 103.532 98.5528 103.5 98.7261 103.436C98.9021 103.372 99.0821 103.277 99.2661 103.152L99.5821 103.596C99.3848 103.751 99.1595 103.872 98.9061 103.96C98.6555 104.048 98.3981 104.092 98.1341 104.092C97.7261 104.092 97.3781 104 97.0901 103.816C96.8021 103.632 96.5821 103.376 96.4301 103.048C96.2808 102.717 96.2061 102.335 96.2061 101.9C96.2061 101.473 96.2821 101.095 96.4341 100.764C96.5861 100.433 96.7995 100.173 97.0741 99.984C97.3488 99.7947 97.6728 99.7 98.0461 99.7C98.4008 99.7 98.7061 99.784 98.9621 99.952C99.2181 100.117 99.4141 100.355 99.5501 100.664C99.6888 100.971 99.7581 101.337 99.7581 101.764C99.7581 101.836 99.7568 101.904 99.7541 101.968C99.7515 102.029 99.7475 102.084 99.7421 102.132H96.9101ZM98.0541 100.252C97.7421 100.252 97.4808 100.363 97.2701 100.584C97.0621 100.805 96.9435 101.148 96.9141 101.612H99.1101C99.1021 101.161 99.0035 100.823 98.8141 100.596C98.6248 100.367 98.3715 100.252 98.0541 100.252ZM104.195 103.08C104.195 103.248 104.223 103.371 104.279 103.448C104.335 103.525 104.422 103.583 104.539 103.62L104.375 104.092C104.194 104.068 104.035 104.011 103.899 103.92C103.763 103.827 103.664 103.687 103.603 103.5C103.451 103.695 103.262 103.843 103.035 103.944C102.808 104.043 102.558 104.092 102.283 104.092C101.862 104.092 101.53 103.973 101.287 103.736C101.044 103.499 100.923 103.184 100.923 102.792C100.923 102.357 101.092 102.024 101.431 101.792C101.77 101.56 102.259 101.444 102.899 101.444H103.519V101.092C103.519 100.788 103.43 100.573 103.251 100.448C103.075 100.32 102.83 100.256 102.515 100.256C102.376 100.256 102.214 100.273 102.027 100.308C101.84 100.34 101.638 100.395 101.419 100.472L101.243 99.964C101.502 99.868 101.744 99.8 101.971 99.76C102.198 99.72 102.414 99.7 102.619 99.7C103.144 99.7 103.538 99.8227 103.799 100.068C104.063 100.311 104.195 100.641 104.195 101.06V103.08ZM102.455 103.58C102.663 103.58 102.862 103.528 103.051 103.424C103.24 103.317 103.396 103.171 103.519 102.984V101.9H102.911C102.447 101.9 102.119 101.98 101.927 102.14C101.738 102.3 101.643 102.515 101.643 102.784C101.643 103.045 101.71 103.244 101.843 103.38C101.979 103.513 102.183 103.58 102.455 103.58ZM108.496 98.008L109.168 98.092V104H108.58L108.516 103.444C108.359 103.668 108.177 103.832 107.972 103.936C107.769 104.04 107.552 104.092 107.32 104.092C106.955 104.092 106.653 104 106.416 103.816C106.179 103.632 106.003 103.376 105.888 103.048C105.773 102.717 105.716 102.335 105.716 101.9C105.716 101.479 105.781 101.103 105.912 100.772C106.043 100.439 106.231 100.177 106.476 99.988C106.724 99.796 107.021 99.7 107.368 99.7C107.611 99.7 107.824 99.7427 108.008 99.828C108.192 99.9107 108.355 100.033 108.496 100.196V98.008ZM107.544 100.24C107.192 100.24 106.921 100.377 106.732 100.652C106.543 100.927 106.448 101.343 106.448 101.9C106.448 102.263 106.487 102.567 106.564 102.812C106.641 103.057 106.755 103.241 106.904 103.364C107.056 103.487 107.241 103.548 107.46 103.548C107.7 103.548 107.904 103.48 108.072 103.344C108.243 103.208 108.384 103.055 108.496 102.884V100.78C108.381 100.609 108.243 100.477 108.08 100.384C107.917 100.288 107.739 100.24 107.544 100.24ZM111.301 102.132C111.314 102.457 111.377 102.724 111.489 102.932C111.601 103.137 111.749 103.289 111.933 103.388C112.117 103.484 112.317 103.532 112.533 103.532C112.749 103.532 112.943 103.5 113.117 103.436C113.293 103.372 113.473 103.277 113.657 103.152L113.973 103.596C113.775 103.751 113.55 103.872 113.297 103.96C113.046 104.048 112.789 104.092 112.525 104.092C112.117 104.092 111.769 104 111.481 103.816C111.193 103.632 110.973 103.376 110.821 103.048C110.671 102.717 110.597 102.335 110.597 101.9C110.597 101.473 110.673 101.095 110.825 100.764C110.977 100.433 111.19 100.173 111.465 99.984C111.739 99.7947 112.063 99.7 112.437 99.7C112.791 99.7 113.097 99.784 113.353 99.952C113.609 100.117 113.805 100.355 113.941 100.664C114.079 100.971 114.149 101.337 114.149 101.764C114.149 101.836 114.147 101.904 114.145 101.968C114.142 102.029 114.138 102.084 114.133 102.132H111.301ZM112.445 100.252C112.133 100.252 111.871 100.363 111.661 100.584C111.453 100.805 111.334 101.148 111.305 101.612H113.501C113.493 101.161 113.394 100.823 113.205 100.596C113.015 100.367 112.762 100.252 112.445 100.252ZM115.61 104V103.484H116.266V100.304H115.61V99.788H116.778L116.902 100.784C117.064 100.437 117.262 100.169 117.494 99.98C117.726 99.7907 118.032 99.696 118.414 99.696C118.531 99.696 118.635 99.7053 118.726 99.724C118.819 99.74 118.914 99.7613 119.01 99.788L118.814 100.388C118.726 100.364 118.646 100.347 118.574 100.336C118.502 100.323 118.419 100.316 118.326 100.316C118.003 100.316 117.726 100.431 117.494 100.66C117.262 100.889 117.076 101.236 116.938 101.7V103.484H117.794V104H115.61ZM118.362 101.212V100.296L118.43 99.788H119.01L118.914 101.212H118.362ZM283.076 97.788L283.612 97.524L287.036 104.584L286.492 104.824L283.076 97.788ZM86.3324 114.788V114.204H89.3764V114.788H86.3324ZM82.5924 114.788V114.204H85.6364V114.788H82.5924ZM92.2573 111.028V113.364C92.4226 113.143 92.6253 112.977 92.8653 112.868C93.1079 112.756 93.3533 112.7 93.6013 112.7C94.0119 112.7 94.3119 112.809 94.5013 113.028C94.6906 113.247 94.7853 113.551 94.7853 113.94V117H94.1133V113.956C94.1133 113.703 94.0546 113.519 93.9373 113.404C93.8199 113.287 93.6359 113.228 93.3853 113.228C93.2253 113.228 93.0733 113.264 92.9293 113.336C92.7853 113.408 92.6559 113.497 92.5413 113.604C92.4266 113.711 92.3319 113.82 92.2573 113.932V117H91.5853V111.1L92.2573 111.028ZM96.9101 115.132C96.9235 115.457 96.9861 115.724 97.0981 115.932C97.2101 116.137 97.3581 116.289 97.5421 116.388C97.7261 116.484 97.9261 116.532 98.1421 116.532C98.3581 116.532 98.5528 116.5 98.7261 116.436C98.9021 116.372 99.0821 116.277 99.2661 116.152L99.5821 116.596C99.3848 116.751 99.1595 116.872 98.9061 116.96C98.6555 117.048 98.3981 117.092 98.1341 117.092C97.7261 117.092 97.3781 117 97.0901 116.816C96.8021 116.632 96.5821 116.376 96.4301 116.048C96.2808 115.717 96.2061 115.335 96.2061 114.9C96.2061 114.473 96.2821 114.095 96.4341 113.764C96.5861 113.433 96.7995 113.173 97.0741 112.984C97.3488 112.795 97.6728 112.7 98.0461 112.7C98.4008 112.7 98.7061 112.784 98.9621 112.952C99.2181 113.117 99.4141 113.355 99.5501 113.664C99.6888 113.971 99.7581 114.337 99.7581 114.764C99.7581 114.836 99.7568 114.904 99.7541 114.968C99.7515 115.029 99.7475 115.084 99.7421 115.132H96.9101ZM98.0541 113.252C97.7421 113.252 97.4808 113.363 97.2701 113.584C97.0621 113.805 96.9435 114.148 96.9141 114.612H99.1101C99.1021 114.161 99.0035 113.823 98.8141 113.596C98.6248 113.367 98.3715 113.252 98.0541 113.252ZM104.195 116.08C104.195 116.248 104.223 116.371 104.279 116.448C104.335 116.525 104.422 116.583 104.539 116.62L104.375 117.092C104.194 117.068 104.035 117.011 103.899 116.92C103.763 116.827 103.664 116.687 103.603 116.5C103.451 116.695 103.262 116.843 103.035 116.944C102.808 117.043 102.558 117.092 102.283 117.092C101.862 117.092 101.53 116.973 101.287 116.736C101.044 116.499 100.923 116.184 100.923 115.792C100.923 115.357 101.092 115.024 101.431 114.792C101.77 114.56 102.259 114.444 102.899 114.444H103.519V114.092C103.519 113.788 103.43 113.573 103.251 113.448C103.075 113.32 102.83 113.256 102.515 113.256C102.376 113.256 102.214 113.273 102.027 113.308C101.84 113.34 101.638 113.395 101.419 113.472L101.243 112.964C101.502 112.868 101.744 112.8 101.971 112.76C102.198 112.72 102.414 112.7 102.619 112.7C103.144 112.7 103.538 112.823 103.799 113.068C104.063 113.311 104.195 113.641 104.195 114.06V116.08ZM102.455 116.58C102.663 116.58 102.862 116.528 103.051 116.424C103.24 116.317 103.396 116.171 103.519 115.984V114.9H102.911C102.447 114.9 102.119 114.98 101.927 115.14C101.738 115.3 101.643 115.515 101.643 115.784C101.643 116.045 101.71 116.244 101.843 116.38C101.979 116.513 102.183 116.58 102.455 116.58ZM108.496 111.008L109.168 111.092V117H108.58L108.516 116.444C108.359 116.668 108.177 116.832 107.972 116.936C107.769 117.04 107.552 117.092 107.32 117.092C106.955 117.092 106.653 117 106.416 116.816C106.179 116.632 106.003 116.376 105.888 116.048C105.773 115.717 105.716 115.335 105.716 114.9C105.716 114.479 105.781 114.103 105.912 113.772C106.043 113.439 106.231 113.177 106.476 112.988C106.724 112.796 107.021 112.7 107.368 112.7C107.611 112.7 107.824 112.743 108.008 112.828C108.192 112.911 108.355 113.033 108.496 113.196V111.008ZM107.544 113.24C107.192 113.24 106.921 113.377 106.732 113.652C106.543 113.927 106.448 114.343 106.448 114.9C106.448 115.263 106.487 115.567 106.564 115.812C106.641 116.057 106.755 116.241 106.904 116.364C107.056 116.487 107.241 116.548 107.46 116.548C107.7 116.548 107.904 116.48 108.072 116.344C108.243 116.208 108.384 116.055 108.496 115.884V113.78C108.381 113.609 108.243 113.477 108.08 113.384C107.917 113.288 107.739 113.24 107.544 113.24ZM111.301 115.132C111.314 115.457 111.377 115.724 111.489 115.932C111.601 116.137 111.749 116.289 111.933 116.388C112.117 116.484 112.317 116.532 112.533 116.532C112.749 116.532 112.943 116.5 113.117 116.436C113.293 116.372 113.473 116.277 113.657 116.152L113.973 116.596C113.775 116.751 113.55 116.872 113.297 116.96C113.046 117.048 112.789 117.092 112.525 117.092C112.117 117.092 111.769 117 111.481 116.816C111.193 116.632 110.973 116.376 110.821 116.048C110.671 115.717 110.597 115.335 110.597 114.9C110.597 114.473 110.673 114.095 110.825 113.764C110.977 113.433 111.19 113.173 111.465 112.984C111.739 112.795 112.063 112.7 112.437 112.7C112.791 112.7 113.097 112.784 113.353 112.952C113.609 113.117 113.805 113.355 113.941 113.664C114.079 113.971 114.149 114.337 114.149 114.764C114.149 114.836 114.147 114.904 114.145 114.968C114.142 115.029 114.138 115.084 114.133 115.132H111.301ZM112.445 113.252C112.133 113.252 111.871 113.363 111.661 113.584C111.453 113.805 111.334 114.148 111.305 114.612H113.501C113.493 114.161 113.394 113.823 113.205 113.596C113.015 113.367 112.762 113.252 112.445 113.252ZM115.61 117V116.484H116.266V113.304H115.61V112.788H116.778L116.902 113.784C117.064 113.437 117.262 113.169 117.494 112.98C117.726 112.791 118.032 112.696 118.414 112.696C118.531 112.696 118.635 112.705 118.726 112.724C118.819 112.74 118.914 112.761 119.01 112.788L118.814 113.388C118.726 113.364 118.646 113.347 118.574 113.336C118.502 113.323 118.419 113.316 118.326 113.316C118.003 113.316 117.726 113.431 117.494 113.66C117.262 113.889 117.076 114.236 116.938 114.7V116.484H117.794V117H115.61ZM118.362 114.212V113.296L118.43 112.788H119.01L118.914 114.212H118.362Z" fill="white"/>
</g>
<defs>
<clipPath id="clip0_246_498">
<path d="M0 12C0 5.37258 5.37258 0 12 0H406C412.627 0 418 5.37258 418 12V159H0V12Z" fill="white"/>
</clipPath>
</defs>
</svg>
